<mxfile host="Electron" modified="2024-07-14T16:19:25.978Z" agent="Mozilla/5.0 (Windows NT 10.0; Win64; x64) AppleWebKit/537.36 (KHTML, like Gecko) draw.io/21.1.2 Chrome/106.0.5249.199 Electron/21.4.3 Safari/537.36" etag="FF5F50HzghMd2mhOr5pc" version="21.1.2" type="device" pages="3">
  <diagram name="tree-ecu-tree-node-destroy" id="ijCujnGtGSSMGPStKjNU">
    <mxGraphModel dx="3415" dy="3170" grid="1" gridSize="10" guides="1" tooltips="1" connect="1" arrows="1" fold="1" page="1" pageScale="1" pageWidth="850" pageHeight="1100" math="0" shadow="0">
      <root>
        <mxCell id="0" />
        <mxCell id="1" parent="0" />
        <mxCell id="5zS1qZb8bQbHz2vx4sYe-193" value="" style="rounded=1;whiteSpace=wrap;html=1;" vertex="1" parent="1">
          <mxGeometry x="100" y="-560" width="1530" height="1160" as="geometry" />
        </mxCell>
        <mxCell id="5zS1qZb8bQbHz2vx4sYe-12" value="" style="rounded=1;whiteSpace=wrap;html=1;fillColor=#c9c5c5;" vertex="1" parent="1">
          <mxGeometry x="200" y="240" width="595" height="280" as="geometry" />
        </mxCell>
        <mxCell id="5zS1qZb8bQbHz2vx4sYe-16" style="edgeStyle=orthogonalEdgeStyle;rounded=0;orthogonalLoop=1;jettySize=auto;html=1;exitX=0.5;exitY=1;exitDx=0;exitDy=0;" edge="1" parent="1" source="5zS1qZb8bQbHz2vx4sYe-1" target="5zS1qZb8bQbHz2vx4sYe-2">
          <mxGeometry relative="1" as="geometry" />
        </mxCell>
        <mxCell id="5zS1qZb8bQbHz2vx4sYe-1" value="Node1" style="ellipse;whiteSpace=wrap;html=1;aspect=fixed;" vertex="1" parent="1">
          <mxGeometry x="230" y="270" width="50" height="50" as="geometry" />
        </mxCell>
        <mxCell id="5zS1qZb8bQbHz2vx4sYe-17" style="edgeStyle=orthogonalEdgeStyle;rounded=0;orthogonalLoop=1;jettySize=auto;html=1;exitX=1;exitY=0.5;exitDx=0;exitDy=0;" edge="1" parent="1" source="5zS1qZb8bQbHz2vx4sYe-2" target="5zS1qZb8bQbHz2vx4sYe-5">
          <mxGeometry relative="1" as="geometry" />
        </mxCell>
        <mxCell id="5zS1qZb8bQbHz2vx4sYe-2" value="Node2" style="ellipse;whiteSpace=wrap;html=1;aspect=fixed;" vertex="1" parent="1">
          <mxGeometry x="230" y="360" width="50" height="50" as="geometry" />
        </mxCell>
        <mxCell id="5zS1qZb8bQbHz2vx4sYe-18" style="edgeStyle=orthogonalEdgeStyle;rounded=0;orthogonalLoop=1;jettySize=auto;html=1;exitX=1;exitY=0.5;exitDx=0;exitDy=0;" edge="1" parent="1" source="5zS1qZb8bQbHz2vx4sYe-5" target="5zS1qZb8bQbHz2vx4sYe-6">
          <mxGeometry relative="1" as="geometry" />
        </mxCell>
        <mxCell id="5zS1qZb8bQbHz2vx4sYe-19" style="edgeStyle=orthogonalEdgeStyle;rounded=0;orthogonalLoop=1;jettySize=auto;html=1;exitX=0.5;exitY=1;exitDx=0;exitDy=0;" edge="1" parent="1" source="5zS1qZb8bQbHz2vx4sYe-5" target="5zS1qZb8bQbHz2vx4sYe-7">
          <mxGeometry relative="1" as="geometry" />
        </mxCell>
        <mxCell id="5zS1qZb8bQbHz2vx4sYe-5" value="Node3" style="ellipse;whiteSpace=wrap;html=1;aspect=fixed;" vertex="1" parent="1">
          <mxGeometry x="320" y="360" width="50" height="50" as="geometry" />
        </mxCell>
        <mxCell id="5zS1qZb8bQbHz2vx4sYe-6" value="Node4" style="ellipse;whiteSpace=wrap;html=1;aspect=fixed;" vertex="1" parent="1">
          <mxGeometry x="410" y="360" width="50" height="50" as="geometry" />
        </mxCell>
        <mxCell id="5zS1qZb8bQbHz2vx4sYe-20" style="edgeStyle=orthogonalEdgeStyle;rounded=0;orthogonalLoop=1;jettySize=auto;html=1;exitX=1;exitY=0.5;exitDx=0;exitDy=0;" edge="1" parent="1" source="5zS1qZb8bQbHz2vx4sYe-7" target="5zS1qZb8bQbHz2vx4sYe-8">
          <mxGeometry relative="1" as="geometry" />
        </mxCell>
        <mxCell id="5zS1qZb8bQbHz2vx4sYe-7" value="Node5" style="ellipse;whiteSpace=wrap;html=1;aspect=fixed;" vertex="1" parent="1">
          <mxGeometry x="320" y="460" width="50" height="50" as="geometry" />
        </mxCell>
        <mxCell id="5zS1qZb8bQbHz2vx4sYe-8" value="Node6" style="ellipse;whiteSpace=wrap;html=1;aspect=fixed;" vertex="1" parent="1">
          <mxGeometry x="410" y="460" width="50" height="50" as="geometry" />
        </mxCell>
        <mxCell id="5zS1qZb8bQbHz2vx4sYe-9" value="&lt;b&gt;&lt;font style=&quot;font-size: 16px;&quot;&gt;Destroying Node3 - ecu_tree_node_destroy(&amp;amp;node3);&lt;/font&gt;&lt;/b&gt;" style="text;html=1;strokeColor=none;fillColor=none;align=center;verticalAlign=middle;whiteSpace=wrap;rounded=0;" vertex="1" parent="1">
          <mxGeometry x="267.5" y="210" width="460" height="30" as="geometry" />
        </mxCell>
        <mxCell id="5zS1qZb8bQbHz2vx4sYe-13" value="" style="endArrow=none;html=1;rounded=0;exitX=0.5;exitY=1;exitDx=0;exitDy=0;entryX=0.5;entryY=0;entryDx=0;entryDy=0;" edge="1" parent="1" source="5zS1qZb8bQbHz2vx4sYe-12" target="5zS1qZb8bQbHz2vx4sYe-12">
          <mxGeometry width="50" height="50" relative="1" as="geometry">
            <mxPoint x="540" y="290" as="sourcePoint" />
            <mxPoint x="490" y="200" as="targetPoint" />
          </mxGeometry>
        </mxCell>
        <mxCell id="5zS1qZb8bQbHz2vx4sYe-14" value="&lt;b&gt;Before&lt;/b&gt;" style="text;html=1;strokeColor=none;fillColor=none;align=center;verticalAlign=middle;whiteSpace=wrap;rounded=0;" vertex="1" parent="1">
          <mxGeometry x="330" y="240" width="60" height="30" as="geometry" />
        </mxCell>
        <mxCell id="5zS1qZb8bQbHz2vx4sYe-15" value="&lt;b&gt;After&lt;/b&gt;" style="text;html=1;strokeColor=none;fillColor=none;align=center;verticalAlign=middle;whiteSpace=wrap;rounded=0;" vertex="1" parent="1">
          <mxGeometry x="620" y="240" width="60" height="30" as="geometry" />
        </mxCell>
        <mxCell id="5zS1qZb8bQbHz2vx4sYe-21" style="edgeStyle=orthogonalEdgeStyle;rounded=0;orthogonalLoop=1;jettySize=auto;html=1;exitX=0.5;exitY=1;exitDx=0;exitDy=0;" edge="1" parent="1" source="5zS1qZb8bQbHz2vx4sYe-22" target="5zS1qZb8bQbHz2vx4sYe-24">
          <mxGeometry relative="1" as="geometry" />
        </mxCell>
        <mxCell id="5zS1qZb8bQbHz2vx4sYe-22" value="Node1" style="ellipse;whiteSpace=wrap;html=1;aspect=fixed;" vertex="1" parent="1">
          <mxGeometry x="570" y="270" width="50" height="50" as="geometry" />
        </mxCell>
        <mxCell id="5zS1qZb8bQbHz2vx4sYe-24" value="Node2" style="ellipse;whiteSpace=wrap;html=1;aspect=fixed;" vertex="1" parent="1">
          <mxGeometry x="570" y="360" width="50" height="50" as="geometry" />
        </mxCell>
        <mxCell id="5zS1qZb8bQbHz2vx4sYe-25" style="edgeStyle=orthogonalEdgeStyle;rounded=0;orthogonalLoop=1;jettySize=auto;html=1;exitX=1;exitY=0.5;exitDx=0;exitDy=0;" edge="1" parent="1" source="5zS1qZb8bQbHz2vx4sYe-24" target="5zS1qZb8bQbHz2vx4sYe-28">
          <mxGeometry relative="1" as="geometry">
            <mxPoint x="629.9999999999986" y="385.0000000000001" as="sourcePoint" />
          </mxGeometry>
        </mxCell>
        <mxCell id="5zS1qZb8bQbHz2vx4sYe-28" value="Node4" style="ellipse;whiteSpace=wrap;html=1;aspect=fixed;" vertex="1" parent="1">
          <mxGeometry x="670" y="360" width="50" height="50" as="geometry" />
        </mxCell>
        <mxCell id="5zS1qZb8bQbHz2vx4sYe-32" value="" style="rounded=1;whiteSpace=wrap;html=1;fillColor=#c9c5c5;" vertex="1" parent="1">
          <mxGeometry x="200" y="-120" width="595" height="280" as="geometry" />
        </mxCell>
        <mxCell id="5zS1qZb8bQbHz2vx4sYe-33" style="edgeStyle=orthogonalEdgeStyle;rounded=0;orthogonalLoop=1;jettySize=auto;html=1;exitX=0.5;exitY=1;exitDx=0;exitDy=0;" edge="1" parent="1" source="5zS1qZb8bQbHz2vx4sYe-34" target="5zS1qZb8bQbHz2vx4sYe-36">
          <mxGeometry relative="1" as="geometry" />
        </mxCell>
        <mxCell id="5zS1qZb8bQbHz2vx4sYe-34" value="Node1" style="ellipse;whiteSpace=wrap;html=1;aspect=fixed;" vertex="1" parent="1">
          <mxGeometry x="230" y="-90" width="50" height="50" as="geometry" />
        </mxCell>
        <mxCell id="5zS1qZb8bQbHz2vx4sYe-35" style="edgeStyle=orthogonalEdgeStyle;rounded=0;orthogonalLoop=1;jettySize=auto;html=1;exitX=1;exitY=0.5;exitDx=0;exitDy=0;" edge="1" parent="1" source="5zS1qZb8bQbHz2vx4sYe-36" target="5zS1qZb8bQbHz2vx4sYe-39">
          <mxGeometry relative="1" as="geometry" />
        </mxCell>
        <mxCell id="5zS1qZb8bQbHz2vx4sYe-36" value="Node2" style="ellipse;whiteSpace=wrap;html=1;aspect=fixed;" vertex="1" parent="1">
          <mxGeometry x="230" width="50" height="50" as="geometry" />
        </mxCell>
        <mxCell id="5zS1qZb8bQbHz2vx4sYe-37" style="edgeStyle=orthogonalEdgeStyle;rounded=0;orthogonalLoop=1;jettySize=auto;html=1;exitX=1;exitY=0.5;exitDx=0;exitDy=0;" edge="1" parent="1" source="5zS1qZb8bQbHz2vx4sYe-39" target="5zS1qZb8bQbHz2vx4sYe-40">
          <mxGeometry relative="1" as="geometry" />
        </mxCell>
        <mxCell id="5zS1qZb8bQbHz2vx4sYe-38" style="edgeStyle=orthogonalEdgeStyle;rounded=0;orthogonalLoop=1;jettySize=auto;html=1;exitX=0.5;exitY=1;exitDx=0;exitDy=0;" edge="1" parent="1" source="5zS1qZb8bQbHz2vx4sYe-39" target="5zS1qZb8bQbHz2vx4sYe-42">
          <mxGeometry relative="1" as="geometry" />
        </mxCell>
        <mxCell id="5zS1qZb8bQbHz2vx4sYe-39" value="Node3" style="ellipse;whiteSpace=wrap;html=1;aspect=fixed;" vertex="1" parent="1">
          <mxGeometry x="320" width="50" height="50" as="geometry" />
        </mxCell>
        <mxCell id="5zS1qZb8bQbHz2vx4sYe-40" value="Node4" style="ellipse;whiteSpace=wrap;html=1;aspect=fixed;" vertex="1" parent="1">
          <mxGeometry x="410" width="50" height="50" as="geometry" />
        </mxCell>
        <mxCell id="5zS1qZb8bQbHz2vx4sYe-41" style="edgeStyle=orthogonalEdgeStyle;rounded=0;orthogonalLoop=1;jettySize=auto;html=1;exitX=1;exitY=0.5;exitDx=0;exitDy=0;" edge="1" parent="1" source="5zS1qZb8bQbHz2vx4sYe-42" target="5zS1qZb8bQbHz2vx4sYe-43">
          <mxGeometry relative="1" as="geometry" />
        </mxCell>
        <mxCell id="5zS1qZb8bQbHz2vx4sYe-42" value="Node5" style="ellipse;whiteSpace=wrap;html=1;aspect=fixed;" vertex="1" parent="1">
          <mxGeometry x="320" y="100" width="50" height="50" as="geometry" />
        </mxCell>
        <mxCell id="5zS1qZb8bQbHz2vx4sYe-43" value="Node6" style="ellipse;whiteSpace=wrap;html=1;aspect=fixed;" vertex="1" parent="1">
          <mxGeometry x="410" y="100" width="50" height="50" as="geometry" />
        </mxCell>
        <mxCell id="5zS1qZb8bQbHz2vx4sYe-44" value="&lt;b&gt;&lt;font style=&quot;font-size: 16px;&quot;&gt;Destroying Node2 - ecu_tree_node_destroy(&amp;amp;node2);&lt;/font&gt;&lt;/b&gt;" style="text;html=1;strokeColor=none;fillColor=none;align=center;verticalAlign=middle;whiteSpace=wrap;rounded=0;" vertex="1" parent="1">
          <mxGeometry x="267.5" y="-150" width="460" height="30" as="geometry" />
        </mxCell>
        <mxCell id="5zS1qZb8bQbHz2vx4sYe-45" value="" style="endArrow=none;html=1;rounded=0;exitX=0.5;exitY=1;exitDx=0;exitDy=0;entryX=0.5;entryY=0;entryDx=0;entryDy=0;" edge="1" parent="1" source="5zS1qZb8bQbHz2vx4sYe-32" target="5zS1qZb8bQbHz2vx4sYe-32">
          <mxGeometry width="50" height="50" relative="1" as="geometry">
            <mxPoint x="540" y="-70" as="sourcePoint" />
            <mxPoint x="490" y="-160" as="targetPoint" />
          </mxGeometry>
        </mxCell>
        <mxCell id="5zS1qZb8bQbHz2vx4sYe-46" value="&lt;b&gt;Before&lt;/b&gt;" style="text;html=1;strokeColor=none;fillColor=none;align=center;verticalAlign=middle;whiteSpace=wrap;rounded=0;" vertex="1" parent="1">
          <mxGeometry x="330" y="-120" width="60" height="30" as="geometry" />
        </mxCell>
        <mxCell id="5zS1qZb8bQbHz2vx4sYe-47" value="&lt;b&gt;After&lt;/b&gt;" style="text;html=1;strokeColor=none;fillColor=none;align=center;verticalAlign=middle;whiteSpace=wrap;rounded=0;" vertex="1" parent="1">
          <mxGeometry x="620" y="-120" width="60" height="30" as="geometry" />
        </mxCell>
        <mxCell id="5zS1qZb8bQbHz2vx4sYe-53" style="edgeStyle=orthogonalEdgeStyle;rounded=0;orthogonalLoop=1;jettySize=auto;html=1;exitX=0.5;exitY=1;exitDx=0;exitDy=0;" edge="1" parent="1" source="5zS1qZb8bQbHz2vx4sYe-54" target="5zS1qZb8bQbHz2vx4sYe-59">
          <mxGeometry relative="1" as="geometry">
            <mxPoint x="595" y="-5" as="targetPoint" />
          </mxGeometry>
        </mxCell>
        <mxCell id="5zS1qZb8bQbHz2vx4sYe-54" value="Node1" style="ellipse;whiteSpace=wrap;html=1;aspect=fixed;" vertex="1" parent="1">
          <mxGeometry x="570" y="-95" width="50" height="50" as="geometry" />
        </mxCell>
        <mxCell id="5zS1qZb8bQbHz2vx4sYe-57" style="edgeStyle=orthogonalEdgeStyle;rounded=0;orthogonalLoop=1;jettySize=auto;html=1;exitX=1;exitY=0.5;exitDx=0;exitDy=0;" edge="1" parent="1" source="5zS1qZb8bQbHz2vx4sYe-59" target="5zS1qZb8bQbHz2vx4sYe-60">
          <mxGeometry relative="1" as="geometry" />
        </mxCell>
        <mxCell id="5zS1qZb8bQbHz2vx4sYe-58" style="edgeStyle=orthogonalEdgeStyle;rounded=0;orthogonalLoop=1;jettySize=auto;html=1;exitX=0.5;exitY=1;exitDx=0;exitDy=0;" edge="1" parent="1" source="5zS1qZb8bQbHz2vx4sYe-59" target="5zS1qZb8bQbHz2vx4sYe-62">
          <mxGeometry relative="1" as="geometry" />
        </mxCell>
        <mxCell id="5zS1qZb8bQbHz2vx4sYe-59" value="Node3" style="ellipse;whiteSpace=wrap;html=1;aspect=fixed;" vertex="1" parent="1">
          <mxGeometry x="570" y="-5" width="50" height="50" as="geometry" />
        </mxCell>
        <mxCell id="5zS1qZb8bQbHz2vx4sYe-60" value="Node4" style="ellipse;whiteSpace=wrap;html=1;aspect=fixed;" vertex="1" parent="1">
          <mxGeometry x="660" y="-5" width="50" height="50" as="geometry" />
        </mxCell>
        <mxCell id="5zS1qZb8bQbHz2vx4sYe-61" style="edgeStyle=orthogonalEdgeStyle;rounded=0;orthogonalLoop=1;jettySize=auto;html=1;exitX=1;exitY=0.5;exitDx=0;exitDy=0;" edge="1" parent="1" source="5zS1qZb8bQbHz2vx4sYe-62" target="5zS1qZb8bQbHz2vx4sYe-63">
          <mxGeometry relative="1" as="geometry" />
        </mxCell>
        <mxCell id="5zS1qZb8bQbHz2vx4sYe-62" value="Node5" style="ellipse;whiteSpace=wrap;html=1;aspect=fixed;" vertex="1" parent="1">
          <mxGeometry x="570" y="95" width="50" height="50" as="geometry" />
        </mxCell>
        <mxCell id="5zS1qZb8bQbHz2vx4sYe-63" value="Node6" style="ellipse;whiteSpace=wrap;html=1;aspect=fixed;" vertex="1" parent="1">
          <mxGeometry x="660" y="95" width="50" height="50" as="geometry" />
        </mxCell>
        <mxCell id="5zS1qZb8bQbHz2vx4sYe-64" value="" style="rounded=1;whiteSpace=wrap;html=1;fillColor=#c9c5c5;" vertex="1" parent="1">
          <mxGeometry x="920" y="-480" width="595" height="280" as="geometry" />
        </mxCell>
        <mxCell id="5zS1qZb8bQbHz2vx4sYe-65" style="edgeStyle=orthogonalEdgeStyle;rounded=0;orthogonalLoop=1;jettySize=auto;html=1;exitX=0.5;exitY=1;exitDx=0;exitDy=0;" edge="1" parent="1" source="5zS1qZb8bQbHz2vx4sYe-66" target="5zS1qZb8bQbHz2vx4sYe-68">
          <mxGeometry relative="1" as="geometry" />
        </mxCell>
        <mxCell id="5zS1qZb8bQbHz2vx4sYe-66" value="Node1" style="ellipse;whiteSpace=wrap;html=1;aspect=fixed;" vertex="1" parent="1">
          <mxGeometry x="950" y="-450" width="50" height="50" as="geometry" />
        </mxCell>
        <mxCell id="5zS1qZb8bQbHz2vx4sYe-67" style="edgeStyle=orthogonalEdgeStyle;rounded=0;orthogonalLoop=1;jettySize=auto;html=1;exitX=1;exitY=0.5;exitDx=0;exitDy=0;" edge="1" parent="1" source="5zS1qZb8bQbHz2vx4sYe-68" target="5zS1qZb8bQbHz2vx4sYe-71">
          <mxGeometry relative="1" as="geometry" />
        </mxCell>
        <mxCell id="5zS1qZb8bQbHz2vx4sYe-68" value="Node2" style="ellipse;whiteSpace=wrap;html=1;aspect=fixed;" vertex="1" parent="1">
          <mxGeometry x="950" y="-360" width="50" height="50" as="geometry" />
        </mxCell>
        <mxCell id="5zS1qZb8bQbHz2vx4sYe-69" style="edgeStyle=orthogonalEdgeStyle;rounded=0;orthogonalLoop=1;jettySize=auto;html=1;exitX=1;exitY=0.5;exitDx=0;exitDy=0;" edge="1" parent="1" source="5zS1qZb8bQbHz2vx4sYe-71" target="5zS1qZb8bQbHz2vx4sYe-72">
          <mxGeometry relative="1" as="geometry" />
        </mxCell>
        <mxCell id="5zS1qZb8bQbHz2vx4sYe-70" style="edgeStyle=orthogonalEdgeStyle;rounded=0;orthogonalLoop=1;jettySize=auto;html=1;exitX=0.5;exitY=1;exitDx=0;exitDy=0;" edge="1" parent="1" source="5zS1qZb8bQbHz2vx4sYe-71" target="5zS1qZb8bQbHz2vx4sYe-74">
          <mxGeometry relative="1" as="geometry" />
        </mxCell>
        <mxCell id="5zS1qZb8bQbHz2vx4sYe-71" value="Node3" style="ellipse;whiteSpace=wrap;html=1;aspect=fixed;" vertex="1" parent="1">
          <mxGeometry x="1040" y="-360" width="50" height="50" as="geometry" />
        </mxCell>
        <mxCell id="5zS1qZb8bQbHz2vx4sYe-72" value="Node4" style="ellipse;whiteSpace=wrap;html=1;aspect=fixed;" vertex="1" parent="1">
          <mxGeometry x="1130" y="-360" width="50" height="50" as="geometry" />
        </mxCell>
        <mxCell id="5zS1qZb8bQbHz2vx4sYe-73" style="edgeStyle=orthogonalEdgeStyle;rounded=0;orthogonalLoop=1;jettySize=auto;html=1;exitX=1;exitY=0.5;exitDx=0;exitDy=0;" edge="1" parent="1" source="5zS1qZb8bQbHz2vx4sYe-74" target="5zS1qZb8bQbHz2vx4sYe-75">
          <mxGeometry relative="1" as="geometry" />
        </mxCell>
        <mxCell id="5zS1qZb8bQbHz2vx4sYe-74" value="Node5" style="ellipse;whiteSpace=wrap;html=1;aspect=fixed;" vertex="1" parent="1">
          <mxGeometry x="1040" y="-260" width="50" height="50" as="geometry" />
        </mxCell>
        <mxCell id="5zS1qZb8bQbHz2vx4sYe-75" value="Node6" style="ellipse;whiteSpace=wrap;html=1;aspect=fixed;" vertex="1" parent="1">
          <mxGeometry x="1130" y="-260" width="50" height="50" as="geometry" />
        </mxCell>
        <mxCell id="5zS1qZb8bQbHz2vx4sYe-76" value="&lt;b&gt;&lt;font style=&quot;font-size: 16px;&quot;&gt;Destroying Node4 - ecu_tree_node_destroy(&amp;amp;node4);&lt;/font&gt;&lt;/b&gt;" style="text;html=1;strokeColor=none;fillColor=none;align=center;verticalAlign=middle;whiteSpace=wrap;rounded=0;" vertex="1" parent="1">
          <mxGeometry x="987.5" y="-510" width="460" height="30" as="geometry" />
        </mxCell>
        <mxCell id="5zS1qZb8bQbHz2vx4sYe-77" value="" style="endArrow=none;html=1;rounded=0;exitX=0.5;exitY=1;exitDx=0;exitDy=0;entryX=0.5;entryY=0;entryDx=0;entryDy=0;" edge="1" parent="1" source="5zS1qZb8bQbHz2vx4sYe-64" target="5zS1qZb8bQbHz2vx4sYe-64">
          <mxGeometry width="50" height="50" relative="1" as="geometry">
            <mxPoint x="1260" y="-430" as="sourcePoint" />
            <mxPoint x="1210" y="-520" as="targetPoint" />
          </mxGeometry>
        </mxCell>
        <mxCell id="5zS1qZb8bQbHz2vx4sYe-78" value="&lt;b&gt;Before&lt;/b&gt;" style="text;html=1;strokeColor=none;fillColor=none;align=center;verticalAlign=middle;whiteSpace=wrap;rounded=0;" vertex="1" parent="1">
          <mxGeometry x="1050" y="-480" width="60" height="30" as="geometry" />
        </mxCell>
        <mxCell id="5zS1qZb8bQbHz2vx4sYe-79" value="&lt;b&gt;After&lt;/b&gt;" style="text;html=1;strokeColor=none;fillColor=none;align=center;verticalAlign=middle;whiteSpace=wrap;rounded=0;" vertex="1" parent="1">
          <mxGeometry x="1340" y="-480" width="60" height="30" as="geometry" />
        </mxCell>
        <mxCell id="5zS1qZb8bQbHz2vx4sYe-96" style="edgeStyle=orthogonalEdgeStyle;rounded=0;orthogonalLoop=1;jettySize=auto;html=1;exitX=0.5;exitY=1;exitDx=0;exitDy=0;" edge="1" parent="1" source="5zS1qZb8bQbHz2vx4sYe-97" target="5zS1qZb8bQbHz2vx4sYe-99">
          <mxGeometry relative="1" as="geometry" />
        </mxCell>
        <mxCell id="5zS1qZb8bQbHz2vx4sYe-97" value="Node1" style="ellipse;whiteSpace=wrap;html=1;aspect=fixed;" vertex="1" parent="1">
          <mxGeometry x="1240" y="-455" width="50" height="50" as="geometry" />
        </mxCell>
        <mxCell id="5zS1qZb8bQbHz2vx4sYe-98" style="edgeStyle=orthogonalEdgeStyle;rounded=0;orthogonalLoop=1;jettySize=auto;html=1;exitX=1;exitY=0.5;exitDx=0;exitDy=0;" edge="1" parent="1" source="5zS1qZb8bQbHz2vx4sYe-99" target="5zS1qZb8bQbHz2vx4sYe-102">
          <mxGeometry relative="1" as="geometry" />
        </mxCell>
        <mxCell id="5zS1qZb8bQbHz2vx4sYe-99" value="Node2" style="ellipse;whiteSpace=wrap;html=1;aspect=fixed;" vertex="1" parent="1">
          <mxGeometry x="1240" y="-365" width="50" height="50" as="geometry" />
        </mxCell>
        <mxCell id="5zS1qZb8bQbHz2vx4sYe-101" style="edgeStyle=orthogonalEdgeStyle;rounded=0;orthogonalLoop=1;jettySize=auto;html=1;exitX=0.5;exitY=1;exitDx=0;exitDy=0;" edge="1" parent="1" source="5zS1qZb8bQbHz2vx4sYe-102" target="5zS1qZb8bQbHz2vx4sYe-105">
          <mxGeometry relative="1" as="geometry" />
        </mxCell>
        <mxCell id="5zS1qZb8bQbHz2vx4sYe-102" value="Node3" style="ellipse;whiteSpace=wrap;html=1;aspect=fixed;" vertex="1" parent="1">
          <mxGeometry x="1330" y="-365" width="50" height="50" as="geometry" />
        </mxCell>
        <mxCell id="5zS1qZb8bQbHz2vx4sYe-104" style="edgeStyle=orthogonalEdgeStyle;rounded=0;orthogonalLoop=1;jettySize=auto;html=1;exitX=1;exitY=0.5;exitDx=0;exitDy=0;" edge="1" parent="1" source="5zS1qZb8bQbHz2vx4sYe-105" target="5zS1qZb8bQbHz2vx4sYe-106">
          <mxGeometry relative="1" as="geometry" />
        </mxCell>
        <mxCell id="5zS1qZb8bQbHz2vx4sYe-105" value="Node5" style="ellipse;whiteSpace=wrap;html=1;aspect=fixed;" vertex="1" parent="1">
          <mxGeometry x="1330" y="-265" width="50" height="50" as="geometry" />
        </mxCell>
        <mxCell id="5zS1qZb8bQbHz2vx4sYe-106" value="Node6" style="ellipse;whiteSpace=wrap;html=1;aspect=fixed;" vertex="1" parent="1">
          <mxGeometry x="1420" y="-265" width="50" height="50" as="geometry" />
        </mxCell>
        <mxCell id="5zS1qZb8bQbHz2vx4sYe-107" value="" style="rounded=1;whiteSpace=wrap;html=1;fillColor=#c9c5c5;" vertex="1" parent="1">
          <mxGeometry x="200" y="-480" width="595" height="280" as="geometry" />
        </mxCell>
        <mxCell id="5zS1qZb8bQbHz2vx4sYe-108" style="edgeStyle=orthogonalEdgeStyle;rounded=0;orthogonalLoop=1;jettySize=auto;html=1;exitX=0.5;exitY=1;exitDx=0;exitDy=0;" edge="1" parent="1" source="5zS1qZb8bQbHz2vx4sYe-109" target="5zS1qZb8bQbHz2vx4sYe-111">
          <mxGeometry relative="1" as="geometry" />
        </mxCell>
        <mxCell id="5zS1qZb8bQbHz2vx4sYe-109" value="Node1" style="ellipse;whiteSpace=wrap;html=1;aspect=fixed;" vertex="1" parent="1">
          <mxGeometry x="230" y="-450" width="50" height="50" as="geometry" />
        </mxCell>
        <mxCell id="5zS1qZb8bQbHz2vx4sYe-110" style="edgeStyle=orthogonalEdgeStyle;rounded=0;orthogonalLoop=1;jettySize=auto;html=1;exitX=1;exitY=0.5;exitDx=0;exitDy=0;" edge="1" parent="1" source="5zS1qZb8bQbHz2vx4sYe-111" target="5zS1qZb8bQbHz2vx4sYe-114">
          <mxGeometry relative="1" as="geometry" />
        </mxCell>
        <mxCell id="5zS1qZb8bQbHz2vx4sYe-111" value="Node2" style="ellipse;whiteSpace=wrap;html=1;aspect=fixed;" vertex="1" parent="1">
          <mxGeometry x="230" y="-360" width="50" height="50" as="geometry" />
        </mxCell>
        <mxCell id="5zS1qZb8bQbHz2vx4sYe-112" style="edgeStyle=orthogonalEdgeStyle;rounded=0;orthogonalLoop=1;jettySize=auto;html=1;exitX=1;exitY=0.5;exitDx=0;exitDy=0;" edge="1" parent="1" source="5zS1qZb8bQbHz2vx4sYe-114" target="5zS1qZb8bQbHz2vx4sYe-115">
          <mxGeometry relative="1" as="geometry" />
        </mxCell>
        <mxCell id="5zS1qZb8bQbHz2vx4sYe-113" style="edgeStyle=orthogonalEdgeStyle;rounded=0;orthogonalLoop=1;jettySize=auto;html=1;exitX=0.5;exitY=1;exitDx=0;exitDy=0;" edge="1" parent="1" source="5zS1qZb8bQbHz2vx4sYe-114" target="5zS1qZb8bQbHz2vx4sYe-117">
          <mxGeometry relative="1" as="geometry" />
        </mxCell>
        <mxCell id="5zS1qZb8bQbHz2vx4sYe-114" value="Node3" style="ellipse;whiteSpace=wrap;html=1;aspect=fixed;" vertex="1" parent="1">
          <mxGeometry x="320" y="-360" width="50" height="50" as="geometry" />
        </mxCell>
        <mxCell id="5zS1qZb8bQbHz2vx4sYe-115" value="Node4" style="ellipse;whiteSpace=wrap;html=1;aspect=fixed;" vertex="1" parent="1">
          <mxGeometry x="410" y="-360" width="50" height="50" as="geometry" />
        </mxCell>
        <mxCell id="5zS1qZb8bQbHz2vx4sYe-116" style="edgeStyle=orthogonalEdgeStyle;rounded=0;orthogonalLoop=1;jettySize=auto;html=1;exitX=1;exitY=0.5;exitDx=0;exitDy=0;" edge="1" parent="1" source="5zS1qZb8bQbHz2vx4sYe-117" target="5zS1qZb8bQbHz2vx4sYe-118">
          <mxGeometry relative="1" as="geometry" />
        </mxCell>
        <mxCell id="5zS1qZb8bQbHz2vx4sYe-117" value="Node5" style="ellipse;whiteSpace=wrap;html=1;aspect=fixed;" vertex="1" parent="1">
          <mxGeometry x="320" y="-260" width="50" height="50" as="geometry" />
        </mxCell>
        <mxCell id="5zS1qZb8bQbHz2vx4sYe-118" value="Node6" style="ellipse;whiteSpace=wrap;html=1;aspect=fixed;" vertex="1" parent="1">
          <mxGeometry x="410" y="-260" width="50" height="50" as="geometry" />
        </mxCell>
        <mxCell id="5zS1qZb8bQbHz2vx4sYe-119" value="&lt;b&gt;&lt;font style=&quot;font-size: 16px;&quot;&gt;Destroying Node1 - ecu_tree_node_destroy(&amp;amp;node1);&lt;/font&gt;&lt;/b&gt;" style="text;html=1;strokeColor=none;fillColor=none;align=center;verticalAlign=middle;whiteSpace=wrap;rounded=0;" vertex="1" parent="1">
          <mxGeometry x="267.5" y="-510" width="460" height="30" as="geometry" />
        </mxCell>
        <mxCell id="5zS1qZb8bQbHz2vx4sYe-120" value="" style="endArrow=none;html=1;rounded=0;exitX=0.5;exitY=1;exitDx=0;exitDy=0;entryX=0.5;entryY=0;entryDx=0;entryDy=0;" edge="1" parent="1" source="5zS1qZb8bQbHz2vx4sYe-107" target="5zS1qZb8bQbHz2vx4sYe-107">
          <mxGeometry width="50" height="50" relative="1" as="geometry">
            <mxPoint x="540" y="-430" as="sourcePoint" />
            <mxPoint x="490" y="-520" as="targetPoint" />
          </mxGeometry>
        </mxCell>
        <mxCell id="5zS1qZb8bQbHz2vx4sYe-121" value="&lt;b&gt;Before&lt;/b&gt;" style="text;html=1;strokeColor=none;fillColor=none;align=center;verticalAlign=middle;whiteSpace=wrap;rounded=0;" vertex="1" parent="1">
          <mxGeometry x="330" y="-480" width="60" height="30" as="geometry" />
        </mxCell>
        <mxCell id="5zS1qZb8bQbHz2vx4sYe-122" value="&lt;b&gt;After&lt;/b&gt;" style="text;html=1;strokeColor=none;fillColor=none;align=center;verticalAlign=middle;whiteSpace=wrap;rounded=0;" vertex="1" parent="1">
          <mxGeometry x="620" y="-480" width="60" height="30" as="geometry" />
        </mxCell>
        <mxCell id="5zS1qZb8bQbHz2vx4sYe-132" value="" style="rounded=1;whiteSpace=wrap;html=1;fillColor=#c9c5c5;" vertex="1" parent="1">
          <mxGeometry x="920" y="-120" width="595" height="280" as="geometry" />
        </mxCell>
        <mxCell id="5zS1qZb8bQbHz2vx4sYe-133" style="edgeStyle=orthogonalEdgeStyle;rounded=0;orthogonalLoop=1;jettySize=auto;html=1;exitX=0.5;exitY=1;exitDx=0;exitDy=0;" edge="1" parent="1" source="5zS1qZb8bQbHz2vx4sYe-134" target="5zS1qZb8bQbHz2vx4sYe-136">
          <mxGeometry relative="1" as="geometry" />
        </mxCell>
        <mxCell id="5zS1qZb8bQbHz2vx4sYe-134" value="Node1" style="ellipse;whiteSpace=wrap;html=1;aspect=fixed;" vertex="1" parent="1">
          <mxGeometry x="950" y="-90" width="50" height="50" as="geometry" />
        </mxCell>
        <mxCell id="5zS1qZb8bQbHz2vx4sYe-135" style="edgeStyle=orthogonalEdgeStyle;rounded=0;orthogonalLoop=1;jettySize=auto;html=1;exitX=1;exitY=0.5;exitDx=0;exitDy=0;" edge="1" parent="1" source="5zS1qZb8bQbHz2vx4sYe-136" target="5zS1qZb8bQbHz2vx4sYe-139">
          <mxGeometry relative="1" as="geometry" />
        </mxCell>
        <mxCell id="5zS1qZb8bQbHz2vx4sYe-136" value="Node2" style="ellipse;whiteSpace=wrap;html=1;aspect=fixed;" vertex="1" parent="1">
          <mxGeometry x="950" width="50" height="50" as="geometry" />
        </mxCell>
        <mxCell id="5zS1qZb8bQbHz2vx4sYe-137" style="edgeStyle=orthogonalEdgeStyle;rounded=0;orthogonalLoop=1;jettySize=auto;html=1;exitX=1;exitY=0.5;exitDx=0;exitDy=0;" edge="1" parent="1" source="5zS1qZb8bQbHz2vx4sYe-139" target="5zS1qZb8bQbHz2vx4sYe-140">
          <mxGeometry relative="1" as="geometry" />
        </mxCell>
        <mxCell id="5zS1qZb8bQbHz2vx4sYe-138" style="edgeStyle=orthogonalEdgeStyle;rounded=0;orthogonalLoop=1;jettySize=auto;html=1;exitX=0.5;exitY=1;exitDx=0;exitDy=0;" edge="1" parent="1" source="5zS1qZb8bQbHz2vx4sYe-139" target="5zS1qZb8bQbHz2vx4sYe-142">
          <mxGeometry relative="1" as="geometry" />
        </mxCell>
        <mxCell id="5zS1qZb8bQbHz2vx4sYe-139" value="Node3" style="ellipse;whiteSpace=wrap;html=1;aspect=fixed;" vertex="1" parent="1">
          <mxGeometry x="1040" width="50" height="50" as="geometry" />
        </mxCell>
        <mxCell id="5zS1qZb8bQbHz2vx4sYe-140" value="Node4" style="ellipse;whiteSpace=wrap;html=1;aspect=fixed;" vertex="1" parent="1">
          <mxGeometry x="1130" width="50" height="50" as="geometry" />
        </mxCell>
        <mxCell id="5zS1qZb8bQbHz2vx4sYe-141" style="edgeStyle=orthogonalEdgeStyle;rounded=0;orthogonalLoop=1;jettySize=auto;html=1;exitX=1;exitY=0.5;exitDx=0;exitDy=0;" edge="1" parent="1" source="5zS1qZb8bQbHz2vx4sYe-142" target="5zS1qZb8bQbHz2vx4sYe-143">
          <mxGeometry relative="1" as="geometry" />
        </mxCell>
        <mxCell id="5zS1qZb8bQbHz2vx4sYe-142" value="Node5" style="ellipse;whiteSpace=wrap;html=1;aspect=fixed;" vertex="1" parent="1">
          <mxGeometry x="1040" y="100" width="50" height="50" as="geometry" />
        </mxCell>
        <mxCell id="5zS1qZb8bQbHz2vx4sYe-143" value="Node6" style="ellipse;whiteSpace=wrap;html=1;aspect=fixed;" vertex="1" parent="1">
          <mxGeometry x="1130" y="100" width="50" height="50" as="geometry" />
        </mxCell>
        <mxCell id="5zS1qZb8bQbHz2vx4sYe-144" value="&lt;b&gt;&lt;font style=&quot;font-size: 16px;&quot;&gt;Destroying Node5 - ecu_tree_node_destroy(&amp;amp;node5);&lt;/font&gt;&lt;/b&gt;" style="text;html=1;strokeColor=none;fillColor=none;align=center;verticalAlign=middle;whiteSpace=wrap;rounded=0;" vertex="1" parent="1">
          <mxGeometry x="987.5" y="-150" width="460" height="30" as="geometry" />
        </mxCell>
        <mxCell id="5zS1qZb8bQbHz2vx4sYe-145" value="" style="endArrow=none;html=1;rounded=0;exitX=0.5;exitY=1;exitDx=0;exitDy=0;entryX=0.5;entryY=0;entryDx=0;entryDy=0;" edge="1" parent="1" source="5zS1qZb8bQbHz2vx4sYe-132" target="5zS1qZb8bQbHz2vx4sYe-132">
          <mxGeometry width="50" height="50" relative="1" as="geometry">
            <mxPoint x="1260" y="-70" as="sourcePoint" />
            <mxPoint x="1210" y="-160" as="targetPoint" />
          </mxGeometry>
        </mxCell>
        <mxCell id="5zS1qZb8bQbHz2vx4sYe-146" value="&lt;b&gt;Before&lt;/b&gt;" style="text;html=1;strokeColor=none;fillColor=none;align=center;verticalAlign=middle;whiteSpace=wrap;rounded=0;" vertex="1" parent="1">
          <mxGeometry x="1050" y="-120" width="60" height="30" as="geometry" />
        </mxCell>
        <mxCell id="5zS1qZb8bQbHz2vx4sYe-147" value="&lt;b&gt;After&lt;/b&gt;" style="text;html=1;strokeColor=none;fillColor=none;align=center;verticalAlign=middle;whiteSpace=wrap;rounded=0;" vertex="1" parent="1">
          <mxGeometry x="1340" y="-120" width="60" height="30" as="geometry" />
        </mxCell>
        <mxCell id="5zS1qZb8bQbHz2vx4sYe-157" style="edgeStyle=orthogonalEdgeStyle;rounded=0;orthogonalLoop=1;jettySize=auto;html=1;exitX=0.5;exitY=1;exitDx=0;exitDy=0;" edge="1" parent="1" source="5zS1qZb8bQbHz2vx4sYe-158" target="5zS1qZb8bQbHz2vx4sYe-160">
          <mxGeometry relative="1" as="geometry" />
        </mxCell>
        <mxCell id="5zS1qZb8bQbHz2vx4sYe-158" value="Node1" style="ellipse;whiteSpace=wrap;html=1;aspect=fixed;" vertex="1" parent="1">
          <mxGeometry x="1240" y="-95" width="50" height="50" as="geometry" />
        </mxCell>
        <mxCell id="5zS1qZb8bQbHz2vx4sYe-159" style="edgeStyle=orthogonalEdgeStyle;rounded=0;orthogonalLoop=1;jettySize=auto;html=1;exitX=1;exitY=0.5;exitDx=0;exitDy=0;" edge="1" parent="1" source="5zS1qZb8bQbHz2vx4sYe-160" target="5zS1qZb8bQbHz2vx4sYe-163">
          <mxGeometry relative="1" as="geometry" />
        </mxCell>
        <mxCell id="5zS1qZb8bQbHz2vx4sYe-160" value="Node2" style="ellipse;whiteSpace=wrap;html=1;aspect=fixed;" vertex="1" parent="1">
          <mxGeometry x="1240" y="-5" width="50" height="50" as="geometry" />
        </mxCell>
        <mxCell id="5zS1qZb8bQbHz2vx4sYe-161" style="edgeStyle=orthogonalEdgeStyle;rounded=0;orthogonalLoop=1;jettySize=auto;html=1;exitX=1;exitY=0.5;exitDx=0;exitDy=0;" edge="1" parent="1" source="5zS1qZb8bQbHz2vx4sYe-163" target="5zS1qZb8bQbHz2vx4sYe-164">
          <mxGeometry relative="1" as="geometry" />
        </mxCell>
        <mxCell id="5zS1qZb8bQbHz2vx4sYe-162" style="edgeStyle=orthogonalEdgeStyle;rounded=0;orthogonalLoop=1;jettySize=auto;html=1;exitX=0.5;exitY=1;exitDx=0;exitDy=0;entryX=0.5;entryY=0;entryDx=0;entryDy=0;" edge="1" parent="1" source="5zS1qZb8bQbHz2vx4sYe-163" target="5zS1qZb8bQbHz2vx4sYe-167">
          <mxGeometry relative="1" as="geometry">
            <mxPoint x="1355" y="95" as="targetPoint" />
          </mxGeometry>
        </mxCell>
        <mxCell id="5zS1qZb8bQbHz2vx4sYe-163" value="Node3" style="ellipse;whiteSpace=wrap;html=1;aspect=fixed;" vertex="1" parent="1">
          <mxGeometry x="1330" y="-5" width="50" height="50" as="geometry" />
        </mxCell>
        <mxCell id="5zS1qZb8bQbHz2vx4sYe-164" value="Node4" style="ellipse;whiteSpace=wrap;html=1;aspect=fixed;" vertex="1" parent="1">
          <mxGeometry x="1420" y="-5" width="50" height="50" as="geometry" />
        </mxCell>
        <mxCell id="5zS1qZb8bQbHz2vx4sYe-167" value="Node6" style="ellipse;whiteSpace=wrap;html=1;aspect=fixed;" vertex="1" parent="1">
          <mxGeometry x="1330" y="95" width="50" height="50" as="geometry" />
        </mxCell>
        <mxCell id="5zS1qZb8bQbHz2vx4sYe-168" value="" style="rounded=1;whiteSpace=wrap;html=1;fillColor=#c9c5c5;" vertex="1" parent="1">
          <mxGeometry x="920" y="240" width="595" height="280" as="geometry" />
        </mxCell>
        <mxCell id="5zS1qZb8bQbHz2vx4sYe-169" style="edgeStyle=orthogonalEdgeStyle;rounded=0;orthogonalLoop=1;jettySize=auto;html=1;exitX=0.5;exitY=1;exitDx=0;exitDy=0;" edge="1" parent="1" source="5zS1qZb8bQbHz2vx4sYe-170" target="5zS1qZb8bQbHz2vx4sYe-172">
          <mxGeometry relative="1" as="geometry" />
        </mxCell>
        <mxCell id="5zS1qZb8bQbHz2vx4sYe-170" value="Node1" style="ellipse;whiteSpace=wrap;html=1;aspect=fixed;" vertex="1" parent="1">
          <mxGeometry x="950" y="270" width="50" height="50" as="geometry" />
        </mxCell>
        <mxCell id="5zS1qZb8bQbHz2vx4sYe-171" style="edgeStyle=orthogonalEdgeStyle;rounded=0;orthogonalLoop=1;jettySize=auto;html=1;exitX=1;exitY=0.5;exitDx=0;exitDy=0;" edge="1" parent="1" source="5zS1qZb8bQbHz2vx4sYe-172" target="5zS1qZb8bQbHz2vx4sYe-175">
          <mxGeometry relative="1" as="geometry" />
        </mxCell>
        <mxCell id="5zS1qZb8bQbHz2vx4sYe-172" value="Node2" style="ellipse;whiteSpace=wrap;html=1;aspect=fixed;" vertex="1" parent="1">
          <mxGeometry x="950" y="360" width="50" height="50" as="geometry" />
        </mxCell>
        <mxCell id="5zS1qZb8bQbHz2vx4sYe-173" style="edgeStyle=orthogonalEdgeStyle;rounded=0;orthogonalLoop=1;jettySize=auto;html=1;exitX=1;exitY=0.5;exitDx=0;exitDy=0;" edge="1" parent="1" source="5zS1qZb8bQbHz2vx4sYe-175" target="5zS1qZb8bQbHz2vx4sYe-176">
          <mxGeometry relative="1" as="geometry" />
        </mxCell>
        <mxCell id="5zS1qZb8bQbHz2vx4sYe-174" style="edgeStyle=orthogonalEdgeStyle;rounded=0;orthogonalLoop=1;jettySize=auto;html=1;exitX=0.5;exitY=1;exitDx=0;exitDy=0;" edge="1" parent="1" source="5zS1qZb8bQbHz2vx4sYe-175" target="5zS1qZb8bQbHz2vx4sYe-178">
          <mxGeometry relative="1" as="geometry" />
        </mxCell>
        <mxCell id="5zS1qZb8bQbHz2vx4sYe-175" value="Node3" style="ellipse;whiteSpace=wrap;html=1;aspect=fixed;" vertex="1" parent="1">
          <mxGeometry x="1040" y="360" width="50" height="50" as="geometry" />
        </mxCell>
        <mxCell id="5zS1qZb8bQbHz2vx4sYe-176" value="Node4" style="ellipse;whiteSpace=wrap;html=1;aspect=fixed;" vertex="1" parent="1">
          <mxGeometry x="1130" y="360" width="50" height="50" as="geometry" />
        </mxCell>
        <mxCell id="5zS1qZb8bQbHz2vx4sYe-177" style="edgeStyle=orthogonalEdgeStyle;rounded=0;orthogonalLoop=1;jettySize=auto;html=1;exitX=1;exitY=0.5;exitDx=0;exitDy=0;" edge="1" parent="1" source="5zS1qZb8bQbHz2vx4sYe-178" target="5zS1qZb8bQbHz2vx4sYe-179">
          <mxGeometry relative="1" as="geometry" />
        </mxCell>
        <mxCell id="5zS1qZb8bQbHz2vx4sYe-178" value="Node5" style="ellipse;whiteSpace=wrap;html=1;aspect=fixed;" vertex="1" parent="1">
          <mxGeometry x="1040" y="460" width="50" height="50" as="geometry" />
        </mxCell>
        <mxCell id="5zS1qZb8bQbHz2vx4sYe-179" value="Node6" style="ellipse;whiteSpace=wrap;html=1;aspect=fixed;" vertex="1" parent="1">
          <mxGeometry x="1130" y="460" width="50" height="50" as="geometry" />
        </mxCell>
        <mxCell id="5zS1qZb8bQbHz2vx4sYe-180" value="&lt;b&gt;&lt;font style=&quot;font-size: 16px;&quot;&gt;Destroying Node6 - ecu_tree_node_destroy(&amp;amp;node6);&lt;/font&gt;&lt;/b&gt;" style="text;html=1;strokeColor=none;fillColor=none;align=center;verticalAlign=middle;whiteSpace=wrap;rounded=0;" vertex="1" parent="1">
          <mxGeometry x="987.5" y="210" width="460" height="30" as="geometry" />
        </mxCell>
        <mxCell id="5zS1qZb8bQbHz2vx4sYe-181" value="" style="endArrow=none;html=1;rounded=0;exitX=0.5;exitY=1;exitDx=0;exitDy=0;entryX=0.5;entryY=0;entryDx=0;entryDy=0;" edge="1" parent="1" source="5zS1qZb8bQbHz2vx4sYe-168" target="5zS1qZb8bQbHz2vx4sYe-168">
          <mxGeometry width="50" height="50" relative="1" as="geometry">
            <mxPoint x="1260" y="290" as="sourcePoint" />
            <mxPoint x="1210" y="200" as="targetPoint" />
          </mxGeometry>
        </mxCell>
        <mxCell id="5zS1qZb8bQbHz2vx4sYe-182" value="&lt;b&gt;Before&lt;/b&gt;" style="text;html=1;strokeColor=none;fillColor=none;align=center;verticalAlign=middle;whiteSpace=wrap;rounded=0;" vertex="1" parent="1">
          <mxGeometry x="1050" y="240" width="60" height="30" as="geometry" />
        </mxCell>
        <mxCell id="5zS1qZb8bQbHz2vx4sYe-183" value="&lt;b&gt;After&lt;/b&gt;" style="text;html=1;strokeColor=none;fillColor=none;align=center;verticalAlign=middle;whiteSpace=wrap;rounded=0;" vertex="1" parent="1">
          <mxGeometry x="1340" y="240" width="60" height="30" as="geometry" />
        </mxCell>
        <mxCell id="5zS1qZb8bQbHz2vx4sYe-184" style="edgeStyle=orthogonalEdgeStyle;rounded=0;orthogonalLoop=1;jettySize=auto;html=1;exitX=0.5;exitY=1;exitDx=0;exitDy=0;" edge="1" parent="1" source="5zS1qZb8bQbHz2vx4sYe-185" target="5zS1qZb8bQbHz2vx4sYe-187">
          <mxGeometry relative="1" as="geometry" />
        </mxCell>
        <mxCell id="5zS1qZb8bQbHz2vx4sYe-185" value="Node1" style="ellipse;whiteSpace=wrap;html=1;aspect=fixed;" vertex="1" parent="1">
          <mxGeometry x="1240" y="265" width="50" height="50" as="geometry" />
        </mxCell>
        <mxCell id="5zS1qZb8bQbHz2vx4sYe-186" style="edgeStyle=orthogonalEdgeStyle;rounded=0;orthogonalLoop=1;jettySize=auto;html=1;exitX=1;exitY=0.5;exitDx=0;exitDy=0;" edge="1" parent="1" source="5zS1qZb8bQbHz2vx4sYe-187" target="5zS1qZb8bQbHz2vx4sYe-190">
          <mxGeometry relative="1" as="geometry" />
        </mxCell>
        <mxCell id="5zS1qZb8bQbHz2vx4sYe-187" value="Node2" style="ellipse;whiteSpace=wrap;html=1;aspect=fixed;" vertex="1" parent="1">
          <mxGeometry x="1240" y="355" width="50" height="50" as="geometry" />
        </mxCell>
        <mxCell id="5zS1qZb8bQbHz2vx4sYe-188" style="edgeStyle=orthogonalEdgeStyle;rounded=0;orthogonalLoop=1;jettySize=auto;html=1;exitX=1;exitY=0.5;exitDx=0;exitDy=0;" edge="1" parent="1" source="5zS1qZb8bQbHz2vx4sYe-190" target="5zS1qZb8bQbHz2vx4sYe-191">
          <mxGeometry relative="1" as="geometry" />
        </mxCell>
        <mxCell id="5zS1qZb8bQbHz2vx4sYe-189" style="edgeStyle=orthogonalEdgeStyle;rounded=0;orthogonalLoop=1;jettySize=auto;html=1;exitX=0.5;exitY=1;exitDx=0;exitDy=0;entryX=0.5;entryY=0;entryDx=0;entryDy=0;" edge="1" parent="1" source="5zS1qZb8bQbHz2vx4sYe-190" target="5zS1qZb8bQbHz2vx4sYe-192">
          <mxGeometry relative="1" as="geometry">
            <mxPoint x="1355" y="455" as="targetPoint" />
          </mxGeometry>
        </mxCell>
        <mxCell id="5zS1qZb8bQbHz2vx4sYe-190" value="Node3" style="ellipse;whiteSpace=wrap;html=1;aspect=fixed;" vertex="1" parent="1">
          <mxGeometry x="1330" y="355" width="50" height="50" as="geometry" />
        </mxCell>
        <mxCell id="5zS1qZb8bQbHz2vx4sYe-191" value="Node4" style="ellipse;whiteSpace=wrap;html=1;aspect=fixed;" vertex="1" parent="1">
          <mxGeometry x="1420" y="355" width="50" height="50" as="geometry" />
        </mxCell>
        <mxCell id="5zS1qZb8bQbHz2vx4sYe-192" value="Node5" style="ellipse;whiteSpace=wrap;html=1;aspect=fixed;" vertex="1" parent="1">
          <mxGeometry x="1330" y="455" width="50" height="50" as="geometry" />
        </mxCell>
      </root>
    </mxGraphModel>
  </diagram>
  <diagram id="AzDZAjX5BbrQ_sKqrUN8" name="tree-ecu-tree-add-child-push-back">
    <mxGraphModel dx="4753" dy="4566" grid="1" gridSize="10" guides="1" tooltips="1" connect="1" arrows="1" fold="1" page="1" pageScale="1" pageWidth="850" pageHeight="1100" math="0" shadow="0">
      <root>
        <mxCell id="0" />
        <mxCell id="1" parent="0" />
        <mxCell id="O9vWRXWZfsQjdqreRZKC-286" value="" style="rounded=1;whiteSpace=wrap;html=1;" vertex="1" parent="1">
          <mxGeometry x="-30" y="-1580" width="1820" height="1560" as="geometry" />
        </mxCell>
        <mxCell id="O9vWRXWZfsQjdqreRZKC-73" value="" style="rounded=1;whiteSpace=wrap;html=1;fillColor=#c9c5c5;" vertex="1" parent="1">
          <mxGeometry x="80" y="-1120" width="760" height="280" as="geometry" />
        </mxCell>
        <mxCell id="O9vWRXWZfsQjdqreRZKC-74" style="edgeStyle=orthogonalEdgeStyle;rounded=0;orthogonalLoop=1;jettySize=auto;html=1;exitX=0.5;exitY=1;exitDx=0;exitDy=0;" edge="1" parent="1" source="O9vWRXWZfsQjdqreRZKC-75" target="O9vWRXWZfsQjdqreRZKC-77">
          <mxGeometry relative="1" as="geometry" />
        </mxCell>
        <mxCell id="O9vWRXWZfsQjdqreRZKC-75" value="Node1" style="ellipse;whiteSpace=wrap;html=1;aspect=fixed;" vertex="1" parent="1">
          <mxGeometry x="100" y="-1090" width="50" height="50" as="geometry" />
        </mxCell>
        <mxCell id="O9vWRXWZfsQjdqreRZKC-76" style="edgeStyle=orthogonalEdgeStyle;rounded=0;orthogonalLoop=1;jettySize=auto;html=1;exitX=1;exitY=0.5;exitDx=0;exitDy=0;" edge="1" parent="1" source="O9vWRXWZfsQjdqreRZKC-77" target="O9vWRXWZfsQjdqreRZKC-80">
          <mxGeometry relative="1" as="geometry" />
        </mxCell>
        <mxCell id="O9vWRXWZfsQjdqreRZKC-77" value="Node2" style="ellipse;whiteSpace=wrap;html=1;aspect=fixed;" vertex="1" parent="1">
          <mxGeometry x="100" y="-1000" width="50" height="50" as="geometry" />
        </mxCell>
        <mxCell id="O9vWRXWZfsQjdqreRZKC-80" value="Node3" style="ellipse;whiteSpace=wrap;html=1;aspect=fixed;" vertex="1" parent="1">
          <mxGeometry x="190" y="-1000" width="50" height="50" as="geometry" />
        </mxCell>
        <mxCell id="O9vWRXWZfsQjdqreRZKC-86" value="" style="endArrow=none;html=1;rounded=0;exitX=0.5;exitY=1;exitDx=0;exitDy=0;entryX=0.5;entryY=0;entryDx=0;entryDy=0;" edge="1" parent="1" source="O9vWRXWZfsQjdqreRZKC-73" target="O9vWRXWZfsQjdqreRZKC-73">
          <mxGeometry width="50" height="50" relative="1" as="geometry">
            <mxPoint x="420" y="-1100" as="sourcePoint" />
            <mxPoint x="370" y="-1190" as="targetPoint" />
          </mxGeometry>
        </mxCell>
        <mxCell id="O9vWRXWZfsQjdqreRZKC-87" value="&lt;b&gt;Before&lt;/b&gt;" style="text;html=1;strokeColor=none;fillColor=none;align=center;verticalAlign=middle;whiteSpace=wrap;rounded=0;" vertex="1" parent="1">
          <mxGeometry x="260" y="-1120" width="60" height="30" as="geometry" />
        </mxCell>
        <mxCell id="O9vWRXWZfsQjdqreRZKC-88" value="&lt;b&gt;After&lt;/b&gt;" style="text;html=1;strokeColor=none;fillColor=none;align=center;verticalAlign=middle;whiteSpace=wrap;rounded=0;" vertex="1" parent="1">
          <mxGeometry x="635" y="-1120" width="60" height="30" as="geometry" />
        </mxCell>
        <mxCell id="O9vWRXWZfsQjdqreRZKC-139" style="edgeStyle=orthogonalEdgeStyle;rounded=0;orthogonalLoop=1;jettySize=auto;html=1;exitX=0.5;exitY=1;exitDx=0;exitDy=0;" edge="1" parent="1" source="O9vWRXWZfsQjdqreRZKC-140" target="O9vWRXWZfsQjdqreRZKC-142">
          <mxGeometry relative="1" as="geometry" />
        </mxCell>
        <mxCell id="O9vWRXWZfsQjdqreRZKC-140" value="Node4" style="ellipse;whiteSpace=wrap;html=1;aspect=fixed;" vertex="1" parent="1">
          <mxGeometry x="310" y="-1090" width="50" height="50" as="geometry" />
        </mxCell>
        <mxCell id="O9vWRXWZfsQjdqreRZKC-141" style="edgeStyle=orthogonalEdgeStyle;rounded=0;orthogonalLoop=1;jettySize=auto;html=1;exitX=1;exitY=0.5;exitDx=0;exitDy=0;" edge="1" parent="1" source="O9vWRXWZfsQjdqreRZKC-142" target="O9vWRXWZfsQjdqreRZKC-143">
          <mxGeometry relative="1" as="geometry" />
        </mxCell>
        <mxCell id="O9vWRXWZfsQjdqreRZKC-142" value="Node5" style="ellipse;whiteSpace=wrap;html=1;aspect=fixed;" vertex="1" parent="1">
          <mxGeometry x="310" y="-1000" width="50" height="50" as="geometry" />
        </mxCell>
        <mxCell id="O9vWRXWZfsQjdqreRZKC-143" value="Node6" style="ellipse;whiteSpace=wrap;html=1;aspect=fixed;" vertex="1" parent="1">
          <mxGeometry x="400" y="-1000" width="50" height="50" as="geometry" />
        </mxCell>
        <mxCell id="O9vWRXWZfsQjdqreRZKC-144" style="edgeStyle=orthogonalEdgeStyle;rounded=0;orthogonalLoop=1;jettySize=auto;html=1;exitX=0.5;exitY=1;exitDx=0;exitDy=0;" edge="1" parent="1" source="O9vWRXWZfsQjdqreRZKC-145" target="O9vWRXWZfsQjdqreRZKC-147">
          <mxGeometry relative="1" as="geometry" />
        </mxCell>
        <mxCell id="O9vWRXWZfsQjdqreRZKC-145" value="Node1" style="ellipse;whiteSpace=wrap;html=1;aspect=fixed;" vertex="1" parent="1">
          <mxGeometry x="500" y="-1090" width="50" height="50" as="geometry" />
        </mxCell>
        <mxCell id="O9vWRXWZfsQjdqreRZKC-146" style="edgeStyle=orthogonalEdgeStyle;rounded=0;orthogonalLoop=1;jettySize=auto;html=1;exitX=1;exitY=0.5;exitDx=0;exitDy=0;" edge="1" parent="1" source="O9vWRXWZfsQjdqreRZKC-147" target="O9vWRXWZfsQjdqreRZKC-148">
          <mxGeometry relative="1" as="geometry" />
        </mxCell>
        <mxCell id="O9vWRXWZfsQjdqreRZKC-147" value="Node2" style="ellipse;whiteSpace=wrap;html=1;aspect=fixed;" vertex="1" parent="1">
          <mxGeometry x="500" y="-1000" width="50" height="50" as="geometry" />
        </mxCell>
        <mxCell id="O9vWRXWZfsQjdqreRZKC-148" value="Node3" style="ellipse;whiteSpace=wrap;html=1;aspect=fixed;" vertex="1" parent="1">
          <mxGeometry x="590" y="-1000" width="50" height="50" as="geometry" />
        </mxCell>
        <mxCell id="O9vWRXWZfsQjdqreRZKC-149" style="edgeStyle=orthogonalEdgeStyle;rounded=0;orthogonalLoop=1;jettySize=auto;html=1;exitX=1;exitY=0.5;exitDx=0;exitDy=0;entryX=0;entryY=0.5;entryDx=0;entryDy=0;" edge="1" parent="1" source="O9vWRXWZfsQjdqreRZKC-148" target="O9vWRXWZfsQjdqreRZKC-153">
          <mxGeometry relative="1" as="geometry">
            <mxPoint x="640" y="-975.19" as="sourcePoint" />
            <mxPoint x="680" y="-974.9999999999999" as="targetPoint" />
          </mxGeometry>
        </mxCell>
        <mxCell id="O9vWRXWZfsQjdqreRZKC-152" style="edgeStyle=orthogonalEdgeStyle;rounded=0;orthogonalLoop=1;jettySize=auto;html=1;exitX=0.5;exitY=1;exitDx=0;exitDy=0;" edge="1" parent="1" source="O9vWRXWZfsQjdqreRZKC-153" target="O9vWRXWZfsQjdqreRZKC-155">
          <mxGeometry relative="1" as="geometry" />
        </mxCell>
        <mxCell id="O9vWRXWZfsQjdqreRZKC-153" value="Node4" style="ellipse;whiteSpace=wrap;html=1;aspect=fixed;" vertex="1" parent="1">
          <mxGeometry x="680" y="-1000" width="50" height="50" as="geometry" />
        </mxCell>
        <mxCell id="O9vWRXWZfsQjdqreRZKC-154" style="edgeStyle=orthogonalEdgeStyle;rounded=0;orthogonalLoop=1;jettySize=auto;html=1;exitX=1;exitY=0.5;exitDx=0;exitDy=0;" edge="1" parent="1" source="O9vWRXWZfsQjdqreRZKC-155" target="O9vWRXWZfsQjdqreRZKC-156">
          <mxGeometry relative="1" as="geometry" />
        </mxCell>
        <mxCell id="O9vWRXWZfsQjdqreRZKC-155" value="Node5" style="ellipse;whiteSpace=wrap;html=1;aspect=fixed;" vertex="1" parent="1">
          <mxGeometry x="680" y="-910" width="50" height="50" as="geometry" />
        </mxCell>
        <mxCell id="O9vWRXWZfsQjdqreRZKC-156" value="Node6" style="ellipse;whiteSpace=wrap;html=1;aspect=fixed;" vertex="1" parent="1">
          <mxGeometry x="770" y="-910" width="50" height="50" as="geometry" />
        </mxCell>
        <mxCell id="O9vWRXWZfsQjdqreRZKC-157" value="" style="rounded=1;whiteSpace=wrap;html=1;fillColor=#c9c5c5;" vertex="1" parent="1">
          <mxGeometry x="80" y="-760" width="760" height="280" as="geometry" />
        </mxCell>
        <mxCell id="O9vWRXWZfsQjdqreRZKC-158" style="edgeStyle=orthogonalEdgeStyle;rounded=0;orthogonalLoop=1;jettySize=auto;html=1;exitX=0.5;exitY=1;exitDx=0;exitDy=0;" edge="1" parent="1" source="O9vWRXWZfsQjdqreRZKC-159" target="O9vWRXWZfsQjdqreRZKC-161">
          <mxGeometry relative="1" as="geometry" />
        </mxCell>
        <mxCell id="O9vWRXWZfsQjdqreRZKC-159" value="Node1" style="ellipse;whiteSpace=wrap;html=1;aspect=fixed;" vertex="1" parent="1">
          <mxGeometry x="100" y="-730" width="50" height="50" as="geometry" />
        </mxCell>
        <mxCell id="O9vWRXWZfsQjdqreRZKC-160" style="edgeStyle=orthogonalEdgeStyle;rounded=0;orthogonalLoop=1;jettySize=auto;html=1;exitX=1;exitY=0.5;exitDx=0;exitDy=0;" edge="1" parent="1" source="O9vWRXWZfsQjdqreRZKC-161" target="O9vWRXWZfsQjdqreRZKC-162">
          <mxGeometry relative="1" as="geometry" />
        </mxCell>
        <mxCell id="O9vWRXWZfsQjdqreRZKC-161" value="Node2" style="ellipse;whiteSpace=wrap;html=1;aspect=fixed;" vertex="1" parent="1">
          <mxGeometry x="100" y="-640" width="50" height="50" as="geometry" />
        </mxCell>
        <mxCell id="O9vWRXWZfsQjdqreRZKC-162" value="Node3" style="ellipse;whiteSpace=wrap;html=1;aspect=fixed;" vertex="1" parent="1">
          <mxGeometry x="190" y="-640" width="50" height="50" as="geometry" />
        </mxCell>
        <mxCell id="O9vWRXWZfsQjdqreRZKC-164" value="" style="endArrow=none;html=1;rounded=0;exitX=0.5;exitY=1;exitDx=0;exitDy=0;entryX=0.5;entryY=0;entryDx=0;entryDy=0;" edge="1" parent="1" source="O9vWRXWZfsQjdqreRZKC-157" target="O9vWRXWZfsQjdqreRZKC-157">
          <mxGeometry width="50" height="50" relative="1" as="geometry">
            <mxPoint x="420" y="-740" as="sourcePoint" />
            <mxPoint x="370" y="-830" as="targetPoint" />
          </mxGeometry>
        </mxCell>
        <mxCell id="O9vWRXWZfsQjdqreRZKC-165" value="&lt;b&gt;Before&lt;/b&gt;" style="text;html=1;strokeColor=none;fillColor=none;align=center;verticalAlign=middle;whiteSpace=wrap;rounded=0;" vertex="1" parent="1">
          <mxGeometry x="260" y="-760" width="60" height="30" as="geometry" />
        </mxCell>
        <mxCell id="O9vWRXWZfsQjdqreRZKC-166" value="&lt;b&gt;After&lt;/b&gt;" style="text;html=1;strokeColor=none;fillColor=none;align=center;verticalAlign=middle;whiteSpace=wrap;rounded=0;" vertex="1" parent="1">
          <mxGeometry x="635" y="-760" width="60" height="30" as="geometry" />
        </mxCell>
        <mxCell id="O9vWRXWZfsQjdqreRZKC-167" style="edgeStyle=orthogonalEdgeStyle;rounded=0;orthogonalLoop=1;jettySize=auto;html=1;exitX=0.5;exitY=1;exitDx=0;exitDy=0;" edge="1" parent="1" source="O9vWRXWZfsQjdqreRZKC-168" target="O9vWRXWZfsQjdqreRZKC-170">
          <mxGeometry relative="1" as="geometry" />
        </mxCell>
        <mxCell id="O9vWRXWZfsQjdqreRZKC-168" value="Node4" style="ellipse;whiteSpace=wrap;html=1;aspect=fixed;" vertex="1" parent="1">
          <mxGeometry x="310" y="-730" width="50" height="50" as="geometry" />
        </mxCell>
        <mxCell id="O9vWRXWZfsQjdqreRZKC-169" style="edgeStyle=orthogonalEdgeStyle;rounded=0;orthogonalLoop=1;jettySize=auto;html=1;exitX=1;exitY=0.5;exitDx=0;exitDy=0;" edge="1" parent="1" source="O9vWRXWZfsQjdqreRZKC-170" target="O9vWRXWZfsQjdqreRZKC-171">
          <mxGeometry relative="1" as="geometry" />
        </mxCell>
        <mxCell id="O9vWRXWZfsQjdqreRZKC-170" value="Node5" style="ellipse;whiteSpace=wrap;html=1;aspect=fixed;" vertex="1" parent="1">
          <mxGeometry x="310" y="-640" width="50" height="50" as="geometry" />
        </mxCell>
        <mxCell id="O9vWRXWZfsQjdqreRZKC-171" value="Node6" style="ellipse;whiteSpace=wrap;html=1;aspect=fixed;" vertex="1" parent="1">
          <mxGeometry x="400" y="-640" width="50" height="50" as="geometry" />
        </mxCell>
        <mxCell id="O9vWRXWZfsQjdqreRZKC-172" style="edgeStyle=orthogonalEdgeStyle;rounded=0;orthogonalLoop=1;jettySize=auto;html=1;exitX=0.5;exitY=1;exitDx=0;exitDy=0;" edge="1" parent="1" source="O9vWRXWZfsQjdqreRZKC-173" target="O9vWRXWZfsQjdqreRZKC-175">
          <mxGeometry relative="1" as="geometry" />
        </mxCell>
        <mxCell id="O9vWRXWZfsQjdqreRZKC-173" value="Node1" style="ellipse;whiteSpace=wrap;html=1;aspect=fixed;" vertex="1" parent="1">
          <mxGeometry x="500" y="-730" width="50" height="50" as="geometry" />
        </mxCell>
        <mxCell id="O9vWRXWZfsQjdqreRZKC-174" style="edgeStyle=orthogonalEdgeStyle;rounded=0;orthogonalLoop=1;jettySize=auto;html=1;exitX=1;exitY=0.5;exitDx=0;exitDy=0;" edge="1" parent="1" source="O9vWRXWZfsQjdqreRZKC-175" target="O9vWRXWZfsQjdqreRZKC-176">
          <mxGeometry relative="1" as="geometry" />
        </mxCell>
        <mxCell id="O9vWRXWZfsQjdqreRZKC-175" value="Node2" style="ellipse;whiteSpace=wrap;html=1;aspect=fixed;" vertex="1" parent="1">
          <mxGeometry x="500" y="-640" width="50" height="50" as="geometry" />
        </mxCell>
        <mxCell id="O9vWRXWZfsQjdqreRZKC-176" value="Node3" style="ellipse;whiteSpace=wrap;html=1;aspect=fixed;" vertex="1" parent="1">
          <mxGeometry x="590" y="-640" width="50" height="50" as="geometry" />
        </mxCell>
        <mxCell id="O9vWRXWZfsQjdqreRZKC-178" style="edgeStyle=orthogonalEdgeStyle;rounded=0;orthogonalLoop=1;jettySize=auto;html=1;exitX=0.5;exitY=1;exitDx=0;exitDy=0;" edge="1" parent="1" source="O9vWRXWZfsQjdqreRZKC-179" target="O9vWRXWZfsQjdqreRZKC-181">
          <mxGeometry relative="1" as="geometry" />
        </mxCell>
        <mxCell id="O9vWRXWZfsQjdqreRZKC-179" value="Node4" style="ellipse;whiteSpace=wrap;html=1;aspect=fixed;" vertex="1" parent="1">
          <mxGeometry x="745" y="-730" width="50" height="50" as="geometry" />
        </mxCell>
        <mxCell id="O9vWRXWZfsQjdqreRZKC-181" value="Node6" style="ellipse;whiteSpace=wrap;html=1;aspect=fixed;" vertex="1" parent="1">
          <mxGeometry x="745" y="-640" width="50" height="50" as="geometry" />
        </mxCell>
        <mxCell id="O9vWRXWZfsQjdqreRZKC-183" style="edgeStyle=orthogonalEdgeStyle;rounded=0;orthogonalLoop=1;jettySize=auto;html=1;exitX=0.5;exitY=1;exitDx=0;exitDy=0;entryX=0.5;entryY=0;entryDx=0;entryDy=0;" edge="1" parent="1" source="O9vWRXWZfsQjdqreRZKC-175" target="O9vWRXWZfsQjdqreRZKC-184">
          <mxGeometry relative="1" as="geometry">
            <mxPoint x="524.84" y="-590" as="sourcePoint" />
            <mxPoint x="524.84" y="-550" as="targetPoint" />
          </mxGeometry>
        </mxCell>
        <mxCell id="O9vWRXWZfsQjdqreRZKC-184" value="Node5" style="ellipse;whiteSpace=wrap;html=1;aspect=fixed;" vertex="1" parent="1">
          <mxGeometry x="500" y="-550" width="50" height="50" as="geometry" />
        </mxCell>
        <mxCell id="O9vWRXWZfsQjdqreRZKC-185" value="" style="rounded=1;whiteSpace=wrap;html=1;fillColor=#c9c5c5;" vertex="1" parent="1">
          <mxGeometry x="920" y="-1120" width="760" height="280" as="geometry" />
        </mxCell>
        <mxCell id="O9vWRXWZfsQjdqreRZKC-186" style="edgeStyle=orthogonalEdgeStyle;rounded=0;orthogonalLoop=1;jettySize=auto;html=1;exitX=0.5;exitY=1;exitDx=0;exitDy=0;" edge="1" parent="1" source="O9vWRXWZfsQjdqreRZKC-187" target="O9vWRXWZfsQjdqreRZKC-189">
          <mxGeometry relative="1" as="geometry" />
        </mxCell>
        <mxCell id="O9vWRXWZfsQjdqreRZKC-187" value="Node1" style="ellipse;whiteSpace=wrap;html=1;aspect=fixed;" vertex="1" parent="1">
          <mxGeometry x="940" y="-1090" width="50" height="50" as="geometry" />
        </mxCell>
        <mxCell id="O9vWRXWZfsQjdqreRZKC-188" style="edgeStyle=orthogonalEdgeStyle;rounded=0;orthogonalLoop=1;jettySize=auto;html=1;exitX=1;exitY=0.5;exitDx=0;exitDy=0;" edge="1" parent="1" source="O9vWRXWZfsQjdqreRZKC-189" target="O9vWRXWZfsQjdqreRZKC-190">
          <mxGeometry relative="1" as="geometry" />
        </mxCell>
        <mxCell id="O9vWRXWZfsQjdqreRZKC-189" value="Node2" style="ellipse;whiteSpace=wrap;html=1;aspect=fixed;" vertex="1" parent="1">
          <mxGeometry x="940" y="-1000" width="50" height="50" as="geometry" />
        </mxCell>
        <mxCell id="O9vWRXWZfsQjdqreRZKC-190" value="Node3" style="ellipse;whiteSpace=wrap;html=1;aspect=fixed;" vertex="1" parent="1">
          <mxGeometry x="1030" y="-1000" width="50" height="50" as="geometry" />
        </mxCell>
        <mxCell id="O9vWRXWZfsQjdqreRZKC-192" value="" style="endArrow=none;html=1;rounded=0;exitX=0.5;exitY=1;exitDx=0;exitDy=0;entryX=0.5;entryY=0;entryDx=0;entryDy=0;" edge="1" parent="1" source="O9vWRXWZfsQjdqreRZKC-185" target="O9vWRXWZfsQjdqreRZKC-185">
          <mxGeometry width="50" height="50" relative="1" as="geometry">
            <mxPoint x="1260" y="-1100" as="sourcePoint" />
            <mxPoint x="1210" y="-1190" as="targetPoint" />
          </mxGeometry>
        </mxCell>
        <mxCell id="O9vWRXWZfsQjdqreRZKC-193" value="&lt;b&gt;Before&lt;/b&gt;" style="text;html=1;strokeColor=none;fillColor=none;align=center;verticalAlign=middle;whiteSpace=wrap;rounded=0;" vertex="1" parent="1">
          <mxGeometry x="1100" y="-1120" width="60" height="30" as="geometry" />
        </mxCell>
        <mxCell id="O9vWRXWZfsQjdqreRZKC-194" value="&lt;b&gt;After&lt;/b&gt;" style="text;html=1;strokeColor=none;fillColor=none;align=center;verticalAlign=middle;whiteSpace=wrap;rounded=0;" vertex="1" parent="1">
          <mxGeometry x="1475" y="-1120" width="60" height="30" as="geometry" />
        </mxCell>
        <mxCell id="O9vWRXWZfsQjdqreRZKC-195" style="edgeStyle=orthogonalEdgeStyle;rounded=0;orthogonalLoop=1;jettySize=auto;html=1;exitX=0.5;exitY=1;exitDx=0;exitDy=0;" edge="1" parent="1" source="O9vWRXWZfsQjdqreRZKC-196" target="O9vWRXWZfsQjdqreRZKC-198">
          <mxGeometry relative="1" as="geometry" />
        </mxCell>
        <mxCell id="O9vWRXWZfsQjdqreRZKC-196" value="Node4" style="ellipse;whiteSpace=wrap;html=1;aspect=fixed;" vertex="1" parent="1">
          <mxGeometry x="1150" y="-1090" width="50" height="50" as="geometry" />
        </mxCell>
        <mxCell id="O9vWRXWZfsQjdqreRZKC-197" style="edgeStyle=orthogonalEdgeStyle;rounded=0;orthogonalLoop=1;jettySize=auto;html=1;exitX=1;exitY=0.5;exitDx=0;exitDy=0;" edge="1" parent="1" source="O9vWRXWZfsQjdqreRZKC-198" target="O9vWRXWZfsQjdqreRZKC-199">
          <mxGeometry relative="1" as="geometry" />
        </mxCell>
        <mxCell id="O9vWRXWZfsQjdqreRZKC-198" value="Node5" style="ellipse;whiteSpace=wrap;html=1;aspect=fixed;" vertex="1" parent="1">
          <mxGeometry x="1150" y="-1000" width="50" height="50" as="geometry" />
        </mxCell>
        <mxCell id="O9vWRXWZfsQjdqreRZKC-199" value="Node6" style="ellipse;whiteSpace=wrap;html=1;aspect=fixed;" vertex="1" parent="1">
          <mxGeometry x="1240" y="-1000" width="50" height="50" as="geometry" />
        </mxCell>
        <mxCell id="O9vWRXWZfsQjdqreRZKC-200" style="edgeStyle=orthogonalEdgeStyle;rounded=0;orthogonalLoop=1;jettySize=auto;html=1;exitX=0.5;exitY=1;exitDx=0;exitDy=0;" edge="1" parent="1" source="O9vWRXWZfsQjdqreRZKC-201" target="O9vWRXWZfsQjdqreRZKC-203">
          <mxGeometry relative="1" as="geometry" />
        </mxCell>
        <mxCell id="O9vWRXWZfsQjdqreRZKC-201" value="Node4" style="ellipse;whiteSpace=wrap;html=1;aspect=fixed;" vertex="1" parent="1">
          <mxGeometry x="1340" y="-1090" width="50" height="50" as="geometry" />
        </mxCell>
        <mxCell id="O9vWRXWZfsQjdqreRZKC-202" style="edgeStyle=orthogonalEdgeStyle;rounded=0;orthogonalLoop=1;jettySize=auto;html=1;exitX=1;exitY=0.5;exitDx=0;exitDy=0;" edge="1" parent="1" source="O9vWRXWZfsQjdqreRZKC-203" target="O9vWRXWZfsQjdqreRZKC-204">
          <mxGeometry relative="1" as="geometry" />
        </mxCell>
        <mxCell id="O9vWRXWZfsQjdqreRZKC-203" value="Node5" style="ellipse;whiteSpace=wrap;html=1;aspect=fixed;" vertex="1" parent="1">
          <mxGeometry x="1340" y="-1000" width="50" height="50" as="geometry" />
        </mxCell>
        <mxCell id="O9vWRXWZfsQjdqreRZKC-204" value="Node6" style="ellipse;whiteSpace=wrap;html=1;aspect=fixed;" vertex="1" parent="1">
          <mxGeometry x="1430" y="-1000" width="50" height="50" as="geometry" />
        </mxCell>
        <mxCell id="O9vWRXWZfsQjdqreRZKC-205" style="edgeStyle=orthogonalEdgeStyle;rounded=0;orthogonalLoop=1;jettySize=auto;html=1;exitX=1;exitY=0.5;exitDx=0;exitDy=0;entryX=0;entryY=0.5;entryDx=0;entryDy=0;" edge="1" parent="1" source="O9vWRXWZfsQjdqreRZKC-204" target="O9vWRXWZfsQjdqreRZKC-207">
          <mxGeometry relative="1" as="geometry">
            <mxPoint x="1480" y="-975.19" as="sourcePoint" />
            <mxPoint x="1520" y="-974.9999999999999" as="targetPoint" />
          </mxGeometry>
        </mxCell>
        <mxCell id="O9vWRXWZfsQjdqreRZKC-206" style="edgeStyle=orthogonalEdgeStyle;rounded=0;orthogonalLoop=1;jettySize=auto;html=1;exitX=0.5;exitY=1;exitDx=0;exitDy=0;" edge="1" parent="1" source="O9vWRXWZfsQjdqreRZKC-207" target="O9vWRXWZfsQjdqreRZKC-209">
          <mxGeometry relative="1" as="geometry" />
        </mxCell>
        <mxCell id="O9vWRXWZfsQjdqreRZKC-207" value="Node1" style="ellipse;whiteSpace=wrap;html=1;aspect=fixed;" vertex="1" parent="1">
          <mxGeometry x="1520" y="-1000" width="50" height="50" as="geometry" />
        </mxCell>
        <mxCell id="O9vWRXWZfsQjdqreRZKC-208" style="edgeStyle=orthogonalEdgeStyle;rounded=0;orthogonalLoop=1;jettySize=auto;html=1;exitX=1;exitY=0.5;exitDx=0;exitDy=0;" edge="1" parent="1" source="O9vWRXWZfsQjdqreRZKC-209" target="O9vWRXWZfsQjdqreRZKC-210">
          <mxGeometry relative="1" as="geometry" />
        </mxCell>
        <mxCell id="O9vWRXWZfsQjdqreRZKC-209" value="Node2" style="ellipse;whiteSpace=wrap;html=1;aspect=fixed;" vertex="1" parent="1">
          <mxGeometry x="1520" y="-910" width="50" height="50" as="geometry" />
        </mxCell>
        <mxCell id="O9vWRXWZfsQjdqreRZKC-210" value="Node3" style="ellipse;whiteSpace=wrap;html=1;aspect=fixed;" vertex="1" parent="1">
          <mxGeometry x="1610" y="-910" width="50" height="50" as="geometry" />
        </mxCell>
        <mxCell id="O9vWRXWZfsQjdqreRZKC-211" value="" style="rounded=1;whiteSpace=wrap;html=1;fillColor=#c9c5c5;" vertex="1" parent="1">
          <mxGeometry x="80" y="-1480" width="760" height="280" as="geometry" />
        </mxCell>
        <mxCell id="O9vWRXWZfsQjdqreRZKC-212" style="edgeStyle=orthogonalEdgeStyle;rounded=0;orthogonalLoop=1;jettySize=auto;html=1;exitX=0.5;exitY=1;exitDx=0;exitDy=0;" edge="1" parent="1" source="O9vWRXWZfsQjdqreRZKC-213" target="O9vWRXWZfsQjdqreRZKC-215">
          <mxGeometry relative="1" as="geometry" />
        </mxCell>
        <mxCell id="O9vWRXWZfsQjdqreRZKC-213" value="Node1" style="ellipse;whiteSpace=wrap;html=1;aspect=fixed;" vertex="1" parent="1">
          <mxGeometry x="137.5" y="-1420" width="50" height="50" as="geometry" />
        </mxCell>
        <mxCell id="O9vWRXWZfsQjdqreRZKC-214" style="edgeStyle=orthogonalEdgeStyle;rounded=0;orthogonalLoop=1;jettySize=auto;html=1;exitX=1;exitY=0.5;exitDx=0;exitDy=0;" edge="1" parent="1" source="O9vWRXWZfsQjdqreRZKC-215" target="O9vWRXWZfsQjdqreRZKC-216">
          <mxGeometry relative="1" as="geometry" />
        </mxCell>
        <mxCell id="O9vWRXWZfsQjdqreRZKC-215" value="Node2" style="ellipse;whiteSpace=wrap;html=1;aspect=fixed;" vertex="1" parent="1">
          <mxGeometry x="137.5" y="-1330" width="50" height="50" as="geometry" />
        </mxCell>
        <mxCell id="O9vWRXWZfsQjdqreRZKC-216" value="Node3" style="ellipse;whiteSpace=wrap;html=1;aspect=fixed;" vertex="1" parent="1">
          <mxGeometry x="227.5" y="-1330" width="50" height="50" as="geometry" />
        </mxCell>
        <mxCell id="O9vWRXWZfsQjdqreRZKC-217" value="&lt;b&gt;&lt;font style=&quot;font-size: 16px;&quot;&gt;Adding Node4 to Node1&lt;br&gt;ecu_tree_add_child_push_back(&amp;amp;node1, &amp;amp;node4);&lt;/font&gt;&lt;/b&gt;" style="text;html=1;strokeColor=none;fillColor=none;align=center;verticalAlign=middle;whiteSpace=wrap;rounded=0;" vertex="1" parent="1">
          <mxGeometry x="230" y="-1520" width="460" height="40" as="geometry" />
        </mxCell>
        <mxCell id="O9vWRXWZfsQjdqreRZKC-218" value="" style="endArrow=none;html=1;rounded=0;exitX=0.5;exitY=1;exitDx=0;exitDy=0;entryX=0.5;entryY=0;entryDx=0;entryDy=0;" edge="1" parent="1" source="O9vWRXWZfsQjdqreRZKC-211" target="O9vWRXWZfsQjdqreRZKC-211">
          <mxGeometry width="50" height="50" relative="1" as="geometry">
            <mxPoint x="417.5" y="-1460" as="sourcePoint" />
            <mxPoint x="367.5" y="-1550" as="targetPoint" />
          </mxGeometry>
        </mxCell>
        <mxCell id="O9vWRXWZfsQjdqreRZKC-219" value="&lt;b&gt;Before&lt;/b&gt;" style="text;html=1;strokeColor=none;fillColor=none;align=center;verticalAlign=middle;whiteSpace=wrap;rounded=0;" vertex="1" parent="1">
          <mxGeometry x="257.5" y="-1480" width="60" height="30" as="geometry" />
        </mxCell>
        <mxCell id="O9vWRXWZfsQjdqreRZKC-220" value="&lt;b&gt;After&lt;/b&gt;" style="text;html=1;strokeColor=none;fillColor=none;align=center;verticalAlign=middle;whiteSpace=wrap;rounded=0;" vertex="1" parent="1">
          <mxGeometry x="632.5" y="-1480" width="60" height="30" as="geometry" />
        </mxCell>
        <mxCell id="O9vWRXWZfsQjdqreRZKC-222" value="Node4" style="ellipse;whiteSpace=wrap;html=1;aspect=fixed;" vertex="1" parent="1">
          <mxGeometry x="347.5" y="-1420" width="50" height="50" as="geometry" />
        </mxCell>
        <mxCell id="O9vWRXWZfsQjdqreRZKC-226" style="edgeStyle=orthogonalEdgeStyle;rounded=0;orthogonalLoop=1;jettySize=auto;html=1;exitX=0.5;exitY=1;exitDx=0;exitDy=0;" edge="1" parent="1" source="O9vWRXWZfsQjdqreRZKC-227" target="O9vWRXWZfsQjdqreRZKC-229">
          <mxGeometry relative="1" as="geometry" />
        </mxCell>
        <mxCell id="O9vWRXWZfsQjdqreRZKC-227" value="Node1" style="ellipse;whiteSpace=wrap;html=1;aspect=fixed;" vertex="1" parent="1">
          <mxGeometry x="537.5" y="-1420" width="50" height="50" as="geometry" />
        </mxCell>
        <mxCell id="O9vWRXWZfsQjdqreRZKC-228" style="edgeStyle=orthogonalEdgeStyle;rounded=0;orthogonalLoop=1;jettySize=auto;html=1;exitX=1;exitY=0.5;exitDx=0;exitDy=0;" edge="1" parent="1" source="O9vWRXWZfsQjdqreRZKC-229" target="O9vWRXWZfsQjdqreRZKC-230">
          <mxGeometry relative="1" as="geometry" />
        </mxCell>
        <mxCell id="O9vWRXWZfsQjdqreRZKC-229" value="Node2" style="ellipse;whiteSpace=wrap;html=1;aspect=fixed;" vertex="1" parent="1">
          <mxGeometry x="537.5" y="-1330" width="50" height="50" as="geometry" />
        </mxCell>
        <mxCell id="O9vWRXWZfsQjdqreRZKC-230" value="Node3" style="ellipse;whiteSpace=wrap;html=1;aspect=fixed;" vertex="1" parent="1">
          <mxGeometry x="627.5" y="-1330" width="50" height="50" as="geometry" />
        </mxCell>
        <mxCell id="O9vWRXWZfsQjdqreRZKC-231" style="edgeStyle=orthogonalEdgeStyle;rounded=0;orthogonalLoop=1;jettySize=auto;html=1;exitX=1;exitY=0.5;exitDx=0;exitDy=0;entryX=0;entryY=0.5;entryDx=0;entryDy=0;" edge="1" parent="1" source="O9vWRXWZfsQjdqreRZKC-230" target="O9vWRXWZfsQjdqreRZKC-233">
          <mxGeometry relative="1" as="geometry">
            <mxPoint x="677.5" y="-1305.19" as="sourcePoint" />
            <mxPoint x="717.5" y="-1305" as="targetPoint" />
          </mxGeometry>
        </mxCell>
        <mxCell id="O9vWRXWZfsQjdqreRZKC-233" value="Node4" style="ellipse;whiteSpace=wrap;html=1;aspect=fixed;" vertex="1" parent="1">
          <mxGeometry x="717.5" y="-1330" width="50" height="50" as="geometry" />
        </mxCell>
        <mxCell id="O9vWRXWZfsQjdqreRZKC-237" value="" style="rounded=1;whiteSpace=wrap;html=1;fillColor=#c9c5c5;" vertex="1" parent="1">
          <mxGeometry x="920" y="-1480" width="760" height="280" as="geometry" />
        </mxCell>
        <mxCell id="O9vWRXWZfsQjdqreRZKC-238" style="edgeStyle=orthogonalEdgeStyle;rounded=0;orthogonalLoop=1;jettySize=auto;html=1;exitX=0.5;exitY=1;exitDx=0;exitDy=0;" edge="1" parent="1" source="O9vWRXWZfsQjdqreRZKC-239" target="O9vWRXWZfsQjdqreRZKC-241">
          <mxGeometry relative="1" as="geometry" />
        </mxCell>
        <mxCell id="O9vWRXWZfsQjdqreRZKC-239" value="Node1" style="ellipse;whiteSpace=wrap;html=1;aspect=fixed;" vertex="1" parent="1">
          <mxGeometry x="980" y="-1420" width="50" height="50" as="geometry" />
        </mxCell>
        <mxCell id="O9vWRXWZfsQjdqreRZKC-240" style="edgeStyle=orthogonalEdgeStyle;rounded=0;orthogonalLoop=1;jettySize=auto;html=1;exitX=1;exitY=0.5;exitDx=0;exitDy=0;" edge="1" parent="1" source="O9vWRXWZfsQjdqreRZKC-241" target="O9vWRXWZfsQjdqreRZKC-242">
          <mxGeometry relative="1" as="geometry" />
        </mxCell>
        <mxCell id="O9vWRXWZfsQjdqreRZKC-241" value="Node2" style="ellipse;whiteSpace=wrap;html=1;aspect=fixed;" vertex="1" parent="1">
          <mxGeometry x="980" y="-1330" width="50" height="50" as="geometry" />
        </mxCell>
        <mxCell id="O9vWRXWZfsQjdqreRZKC-242" value="Node3" style="ellipse;whiteSpace=wrap;html=1;aspect=fixed;" vertex="1" parent="1">
          <mxGeometry x="1070" y="-1330" width="50" height="50" as="geometry" />
        </mxCell>
        <mxCell id="O9vWRXWZfsQjdqreRZKC-244" value="" style="endArrow=none;html=1;rounded=0;exitX=0.5;exitY=1;exitDx=0;exitDy=0;entryX=0.5;entryY=0;entryDx=0;entryDy=0;" edge="1" parent="1" source="O9vWRXWZfsQjdqreRZKC-237" target="O9vWRXWZfsQjdqreRZKC-237">
          <mxGeometry width="50" height="50" relative="1" as="geometry">
            <mxPoint x="1260" y="-1460" as="sourcePoint" />
            <mxPoint x="1210" y="-1550" as="targetPoint" />
          </mxGeometry>
        </mxCell>
        <mxCell id="O9vWRXWZfsQjdqreRZKC-245" value="&lt;b&gt;Before&lt;/b&gt;" style="text;html=1;strokeColor=none;fillColor=none;align=center;verticalAlign=middle;whiteSpace=wrap;rounded=0;" vertex="1" parent="1">
          <mxGeometry x="1100" y="-1480" width="60" height="30" as="geometry" />
        </mxCell>
        <mxCell id="O9vWRXWZfsQjdqreRZKC-246" value="&lt;b&gt;After&lt;/b&gt;" style="text;html=1;strokeColor=none;fillColor=none;align=center;verticalAlign=middle;whiteSpace=wrap;rounded=0;" vertex="1" parent="1">
          <mxGeometry x="1475" y="-1480" width="60" height="30" as="geometry" />
        </mxCell>
        <mxCell id="O9vWRXWZfsQjdqreRZKC-247" value="Node4" style="ellipse;whiteSpace=wrap;html=1;aspect=fixed;" vertex="1" parent="1">
          <mxGeometry x="1190" y="-1420" width="50" height="50" as="geometry" />
        </mxCell>
        <mxCell id="O9vWRXWZfsQjdqreRZKC-248" style="edgeStyle=orthogonalEdgeStyle;rounded=0;orthogonalLoop=1;jettySize=auto;html=1;exitX=0.5;exitY=1;exitDx=0;exitDy=0;" edge="1" parent="1" source="O9vWRXWZfsQjdqreRZKC-249" target="O9vWRXWZfsQjdqreRZKC-251">
          <mxGeometry relative="1" as="geometry" />
        </mxCell>
        <mxCell id="O9vWRXWZfsQjdqreRZKC-249" value="Node1" style="ellipse;whiteSpace=wrap;html=1;aspect=fixed;" vertex="1" parent="1">
          <mxGeometry x="1410" y="-1355" width="50" height="50" as="geometry" />
        </mxCell>
        <mxCell id="O9vWRXWZfsQjdqreRZKC-250" style="edgeStyle=orthogonalEdgeStyle;rounded=0;orthogonalLoop=1;jettySize=auto;html=1;exitX=1;exitY=0.5;exitDx=0;exitDy=0;" edge="1" parent="1" source="O9vWRXWZfsQjdqreRZKC-251" target="O9vWRXWZfsQjdqreRZKC-252">
          <mxGeometry relative="1" as="geometry" />
        </mxCell>
        <mxCell id="O9vWRXWZfsQjdqreRZKC-251" value="Node2" style="ellipse;whiteSpace=wrap;html=1;aspect=fixed;" vertex="1" parent="1">
          <mxGeometry x="1410" y="-1265" width="50" height="50" as="geometry" />
        </mxCell>
        <mxCell id="O9vWRXWZfsQjdqreRZKC-252" value="Node3" style="ellipse;whiteSpace=wrap;html=1;aspect=fixed;" vertex="1" parent="1">
          <mxGeometry x="1500" y="-1265" width="50" height="50" as="geometry" />
        </mxCell>
        <mxCell id="O9vWRXWZfsQjdqreRZKC-254" value="Node4" style="ellipse;whiteSpace=wrap;html=1;aspect=fixed;" vertex="1" parent="1">
          <mxGeometry x="1410" y="-1445" width="50" height="50" as="geometry" />
        </mxCell>
        <mxCell id="O9vWRXWZfsQjdqreRZKC-255" style="edgeStyle=orthogonalEdgeStyle;rounded=0;orthogonalLoop=1;jettySize=auto;html=1;exitX=0.5;exitY=1;exitDx=0;exitDy=0;entryX=0.5;entryY=0;entryDx=0;entryDy=0;" edge="1" parent="1" source="O9vWRXWZfsQjdqreRZKC-254" target="O9vWRXWZfsQjdqreRZKC-249">
          <mxGeometry relative="1" as="geometry">
            <mxPoint x="1434.86" y="-1395" as="sourcePoint" />
            <mxPoint x="1434.86" y="-1355" as="targetPoint" />
          </mxGeometry>
        </mxCell>
        <mxCell id="O9vWRXWZfsQjdqreRZKC-256" value="" style="rounded=1;whiteSpace=wrap;html=1;fillColor=#c9c5c5;" vertex="1" parent="1">
          <mxGeometry x="920" y="-760" width="760" height="280" as="geometry" />
        </mxCell>
        <mxCell id="O9vWRXWZfsQjdqreRZKC-257" style="edgeStyle=orthogonalEdgeStyle;rounded=0;orthogonalLoop=1;jettySize=auto;html=1;exitX=0.5;exitY=1;exitDx=0;exitDy=0;" edge="1" parent="1" source="O9vWRXWZfsQjdqreRZKC-258" target="O9vWRXWZfsQjdqreRZKC-260">
          <mxGeometry relative="1" as="geometry" />
        </mxCell>
        <mxCell id="O9vWRXWZfsQjdqreRZKC-258" value="Node1" style="ellipse;whiteSpace=wrap;html=1;aspect=fixed;" vertex="1" parent="1">
          <mxGeometry x="1050" y="-690" width="50" height="50" as="geometry" />
        </mxCell>
        <mxCell id="O9vWRXWZfsQjdqreRZKC-259" style="edgeStyle=orthogonalEdgeStyle;rounded=0;orthogonalLoop=1;jettySize=auto;html=1;exitX=1;exitY=0.5;exitDx=0;exitDy=0;" edge="1" parent="1" source="O9vWRXWZfsQjdqreRZKC-260" target="O9vWRXWZfsQjdqreRZKC-261">
          <mxGeometry relative="1" as="geometry" />
        </mxCell>
        <mxCell id="O9vWRXWZfsQjdqreRZKC-260" value="Node2" style="ellipse;whiteSpace=wrap;html=1;aspect=fixed;" vertex="1" parent="1">
          <mxGeometry x="1050" y="-600" width="50" height="50" as="geometry" />
        </mxCell>
        <mxCell id="O9vWRXWZfsQjdqreRZKC-261" value="Node3" style="ellipse;whiteSpace=wrap;html=1;aspect=fixed;" vertex="1" parent="1">
          <mxGeometry x="1140" y="-600" width="50" height="50" as="geometry" />
        </mxCell>
        <mxCell id="O9vWRXWZfsQjdqreRZKC-263" value="" style="endArrow=none;html=1;rounded=0;exitX=0.5;exitY=1;exitDx=0;exitDy=0;entryX=0.5;entryY=0;entryDx=0;entryDy=0;" edge="1" parent="1" source="O9vWRXWZfsQjdqreRZKC-256" target="O9vWRXWZfsQjdqreRZKC-256">
          <mxGeometry width="50" height="50" relative="1" as="geometry">
            <mxPoint x="1260" y="-740" as="sourcePoint" />
            <mxPoint x="1210" y="-830" as="targetPoint" />
          </mxGeometry>
        </mxCell>
        <mxCell id="O9vWRXWZfsQjdqreRZKC-264" value="&lt;b&gt;Before&lt;/b&gt;" style="text;html=1;strokeColor=none;fillColor=none;align=center;verticalAlign=middle;whiteSpace=wrap;rounded=0;" vertex="1" parent="1">
          <mxGeometry x="1100" y="-760" width="60" height="30" as="geometry" />
        </mxCell>
        <mxCell id="O9vWRXWZfsQjdqreRZKC-265" value="&lt;b&gt;After&lt;/b&gt;" style="text;html=1;strokeColor=none;fillColor=none;align=center;verticalAlign=middle;whiteSpace=wrap;rounded=0;" vertex="1" parent="1">
          <mxGeometry x="1475" y="-760" width="60" height="30" as="geometry" />
        </mxCell>
        <mxCell id="O9vWRXWZfsQjdqreRZKC-281" style="edgeStyle=orthogonalEdgeStyle;rounded=0;orthogonalLoop=1;jettySize=auto;html=1;exitX=0.5;exitY=1;exitDx=0;exitDy=0;" edge="1" parent="1" source="O9vWRXWZfsQjdqreRZKC-282" target="O9vWRXWZfsQjdqreRZKC-284">
          <mxGeometry relative="1" as="geometry" />
        </mxCell>
        <mxCell id="O9vWRXWZfsQjdqreRZKC-282" value="Node1" style="ellipse;whiteSpace=wrap;html=1;aspect=fixed;" vertex="1" parent="1">
          <mxGeometry x="1410" y="-690" width="50" height="50" as="geometry" />
        </mxCell>
        <mxCell id="O9vWRXWZfsQjdqreRZKC-283" style="edgeStyle=orthogonalEdgeStyle;rounded=0;orthogonalLoop=1;jettySize=auto;html=1;exitX=1;exitY=0.5;exitDx=0;exitDy=0;" edge="1" parent="1" source="O9vWRXWZfsQjdqreRZKC-284" target="O9vWRXWZfsQjdqreRZKC-285">
          <mxGeometry relative="1" as="geometry" />
        </mxCell>
        <mxCell id="O9vWRXWZfsQjdqreRZKC-284" value="Node3" style="ellipse;whiteSpace=wrap;html=1;aspect=fixed;" vertex="1" parent="1">
          <mxGeometry x="1410" y="-600" width="50" height="50" as="geometry" />
        </mxCell>
        <mxCell id="O9vWRXWZfsQjdqreRZKC-285" value="Node2" style="ellipse;whiteSpace=wrap;html=1;aspect=fixed;" vertex="1" parent="1">
          <mxGeometry x="1500" y="-600" width="50" height="50" as="geometry" />
        </mxCell>
        <mxCell id="2HPbfZ2s-njxEgDeP7Dj-1" value="&lt;b&gt;&lt;font style=&quot;font-size: 16px;&quot;&gt;Adding Node5 to Node2&lt;br&gt;ecu_tree_add_child_push_back(&amp;amp;node2, &amp;amp;node5);&lt;/font&gt;&lt;/b&gt;" style="text;html=1;strokeColor=none;fillColor=none;align=center;verticalAlign=middle;whiteSpace=wrap;rounded=0;" vertex="1" parent="1">
          <mxGeometry x="230" y="-800" width="460" height="40" as="geometry" />
        </mxCell>
        <mxCell id="2HPbfZ2s-njxEgDeP7Dj-2" value="&lt;b&gt;&lt;font style=&quot;font-size: 16px;&quot;&gt;Adding Node1 to Node4&lt;br&gt;ecu_tree_add_child_push_back(&amp;amp;node4, &amp;amp;node1);&lt;/font&gt;&lt;/b&gt;" style="text;html=1;strokeColor=none;fillColor=none;align=center;verticalAlign=middle;whiteSpace=wrap;rounded=0;" vertex="1" parent="1">
          <mxGeometry x="1070" y="-1520" width="460" height="40" as="geometry" />
        </mxCell>
        <mxCell id="2HPbfZ2s-njxEgDeP7Dj-3" value="&lt;b&gt;&lt;font style=&quot;font-size: 16px;&quot;&gt;Adding Node1 to Node4&lt;br&gt;ecu_tree_add_child_push_back(&amp;amp;node4, &amp;amp;node1);&lt;/font&gt;&lt;/b&gt;" style="text;html=1;strokeColor=none;fillColor=none;align=center;verticalAlign=middle;whiteSpace=wrap;rounded=0;" vertex="1" parent="1">
          <mxGeometry x="1070" y="-1160" width="460" height="40" as="geometry" />
        </mxCell>
        <mxCell id="2HPbfZ2s-njxEgDeP7Dj-5" value="&lt;b&gt;&lt;font style=&quot;font-size: 16px;&quot;&gt;Adding Node4 to Node1&lt;br&gt;ecu_tree_add_child_push_back(&amp;amp;node1, &amp;amp;node4);&lt;/font&gt;&lt;/b&gt;" style="text;html=1;strokeColor=none;fillColor=none;align=center;verticalAlign=middle;whiteSpace=wrap;rounded=0;" vertex="1" parent="1">
          <mxGeometry x="230" y="-1160" width="460" height="40" as="geometry" />
        </mxCell>
        <mxCell id="2HPbfZ2s-njxEgDeP7Dj-6" value="&lt;b&gt;&lt;font style=&quot;font-size: 16px;&quot;&gt;Adding Node2 to Node1&lt;br&gt;ecu_tree_add_child_push_back(&amp;amp;node1, &amp;amp;node2);&lt;/font&gt;&lt;/b&gt;" style="text;html=1;strokeColor=none;fillColor=none;align=center;verticalAlign=middle;whiteSpace=wrap;rounded=0;" vertex="1" parent="1">
          <mxGeometry x="1070" y="-800" width="460" height="40" as="geometry" />
        </mxCell>
        <mxCell id="2HPbfZ2s-njxEgDeP7Dj-7" value="" style="rounded=1;whiteSpace=wrap;html=1;fillColor=#c9c5c5;" vertex="1" parent="1">
          <mxGeometry x="80" y="-400" width="760" height="280" as="geometry" />
        </mxCell>
        <mxCell id="2HPbfZ2s-njxEgDeP7Dj-13" value="" style="endArrow=none;html=1;rounded=0;exitX=0.5;exitY=1;exitDx=0;exitDy=0;entryX=0.5;entryY=0;entryDx=0;entryDy=0;" edge="1" parent="1" source="2HPbfZ2s-njxEgDeP7Dj-7" target="2HPbfZ2s-njxEgDeP7Dj-7">
          <mxGeometry width="50" height="50" relative="1" as="geometry">
            <mxPoint x="420" y="-380" as="sourcePoint" />
            <mxPoint x="370" y="-470" as="targetPoint" />
          </mxGeometry>
        </mxCell>
        <mxCell id="2HPbfZ2s-njxEgDeP7Dj-14" value="&lt;b&gt;Before&lt;/b&gt;" style="text;html=1;strokeColor=none;fillColor=none;align=center;verticalAlign=middle;whiteSpace=wrap;rounded=0;" vertex="1" parent="1">
          <mxGeometry x="260" y="-400" width="60" height="30" as="geometry" />
        </mxCell>
        <mxCell id="2HPbfZ2s-njxEgDeP7Dj-15" value="&lt;b&gt;After&lt;/b&gt;" style="text;html=1;strokeColor=none;fillColor=none;align=center;verticalAlign=middle;whiteSpace=wrap;rounded=0;" vertex="1" parent="1">
          <mxGeometry x="635" y="-400" width="60" height="30" as="geometry" />
        </mxCell>
        <mxCell id="2HPbfZ2s-njxEgDeP7Dj-31" value="&lt;b&gt;&lt;font style=&quot;font-size: 16px;&quot;&gt;Adding Node To Itself Is Not Allowed&lt;br&gt;ecu_tree_add_child_push_back(&amp;amp;node2, &amp;amp;node2);&lt;/font&gt;&lt;/b&gt;" style="text;html=1;strokeColor=none;fillColor=none;align=center;verticalAlign=middle;whiteSpace=wrap;rounded=0;" vertex="1" parent="1">
          <mxGeometry x="230" y="-440" width="460" height="40" as="geometry" />
        </mxCell>
        <mxCell id="2HPbfZ2s-njxEgDeP7Dj-32" style="edgeStyle=orthogonalEdgeStyle;rounded=0;orthogonalLoop=1;jettySize=auto;html=1;exitX=0.5;exitY=1;exitDx=0;exitDy=0;" edge="1" parent="1" source="2HPbfZ2s-njxEgDeP7Dj-33" target="2HPbfZ2s-njxEgDeP7Dj-35">
          <mxGeometry relative="1" as="geometry" />
        </mxCell>
        <mxCell id="2HPbfZ2s-njxEgDeP7Dj-33" value="Node1" style="ellipse;whiteSpace=wrap;html=1;aspect=fixed;" vertex="1" parent="1">
          <mxGeometry x="217.5" y="-340" width="50" height="50" as="geometry" />
        </mxCell>
        <mxCell id="2HPbfZ2s-njxEgDeP7Dj-34" style="edgeStyle=orthogonalEdgeStyle;rounded=0;orthogonalLoop=1;jettySize=auto;html=1;exitX=1;exitY=0.5;exitDx=0;exitDy=0;" edge="1" parent="1" source="2HPbfZ2s-njxEgDeP7Dj-35" target="2HPbfZ2s-njxEgDeP7Dj-36">
          <mxGeometry relative="1" as="geometry" />
        </mxCell>
        <mxCell id="2HPbfZ2s-njxEgDeP7Dj-35" value="Node2" style="ellipse;whiteSpace=wrap;html=1;aspect=fixed;" vertex="1" parent="1">
          <mxGeometry x="217.5" y="-250" width="50" height="50" as="geometry" />
        </mxCell>
        <mxCell id="2HPbfZ2s-njxEgDeP7Dj-36" value="Node3" style="ellipse;whiteSpace=wrap;html=1;aspect=fixed;" vertex="1" parent="1">
          <mxGeometry x="307.5" y="-250" width="50" height="50" as="geometry" />
        </mxCell>
        <mxCell id="2HPbfZ2s-njxEgDeP7Dj-38" value="" style="endArrow=none;html=1;rounded=0;entryX=0.986;entryY=0.052;entryDx=0;entryDy=0;entryPerimeter=0;exitX=0.5;exitY=1;exitDx=0;exitDy=0;strokeWidth=5;strokeColor=#FF0000;" edge="1" parent="1" source="2HPbfZ2s-njxEgDeP7Dj-7" target="2HPbfZ2s-njxEgDeP7Dj-7">
          <mxGeometry width="50" height="50" relative="1" as="geometry">
            <mxPoint x="630" y="-120" as="sourcePoint" />
            <mxPoint x="680" y="-170" as="targetPoint" />
          </mxGeometry>
        </mxCell>
        <mxCell id="2HPbfZ2s-njxEgDeP7Dj-39" value="" style="endArrow=none;html=1;rounded=0;entryX=0.986;entryY=0.959;entryDx=0;entryDy=0;entryPerimeter=0;exitX=0.5;exitY=1;exitDx=0;exitDy=0;strokeWidth=5;strokeColor=#FF0000;" edge="1" parent="1" source="2HPbfZ2s-njxEgDeP7Dj-31" target="2HPbfZ2s-njxEgDeP7Dj-7">
          <mxGeometry width="50" height="50" relative="1" as="geometry">
            <mxPoint x="470" y="-110" as="sourcePoint" />
            <mxPoint x="839" y="-375" as="targetPoint" />
          </mxGeometry>
        </mxCell>
        <mxCell id="2HPbfZ2s-njxEgDeP7Dj-40" value="" style="rounded=1;whiteSpace=wrap;html=1;fillColor=#c9c5c5;" vertex="1" parent="1">
          <mxGeometry x="920" y="-400" width="760" height="280" as="geometry" />
        </mxCell>
        <mxCell id="2HPbfZ2s-njxEgDeP7Dj-41" value="" style="endArrow=none;html=1;rounded=0;exitX=0.5;exitY=1;exitDx=0;exitDy=0;entryX=0.5;entryY=0;entryDx=0;entryDy=0;" edge="1" parent="1" source="2HPbfZ2s-njxEgDeP7Dj-40" target="2HPbfZ2s-njxEgDeP7Dj-40">
          <mxGeometry width="50" height="50" relative="1" as="geometry">
            <mxPoint x="1260" y="-380" as="sourcePoint" />
            <mxPoint x="1210" y="-470" as="targetPoint" />
          </mxGeometry>
        </mxCell>
        <mxCell id="2HPbfZ2s-njxEgDeP7Dj-42" value="&lt;b&gt;Before&lt;/b&gt;" style="text;html=1;strokeColor=none;fillColor=none;align=center;verticalAlign=middle;whiteSpace=wrap;rounded=0;" vertex="1" parent="1">
          <mxGeometry x="1100" y="-400" width="60" height="30" as="geometry" />
        </mxCell>
        <mxCell id="2HPbfZ2s-njxEgDeP7Dj-43" value="&lt;b&gt;After&lt;/b&gt;" style="text;html=1;strokeColor=none;fillColor=none;align=center;verticalAlign=middle;whiteSpace=wrap;rounded=0;" vertex="1" parent="1">
          <mxGeometry x="1475" y="-400" width="60" height="30" as="geometry" />
        </mxCell>
        <mxCell id="2HPbfZ2s-njxEgDeP7Dj-44" value="&lt;b&gt;&lt;font style=&quot;font-size: 16px;&quot;&gt;Adding Parent To Its Child Is Not Allowed&lt;br&gt;ecu_tree_add_child_push_back(&amp;amp;node3, &amp;amp;node1);&lt;/font&gt;&lt;/b&gt;" style="text;html=1;strokeColor=none;fillColor=none;align=center;verticalAlign=middle;whiteSpace=wrap;rounded=0;" vertex="1" parent="1">
          <mxGeometry x="1070" y="-440" width="460" height="40" as="geometry" />
        </mxCell>
        <mxCell id="2HPbfZ2s-njxEgDeP7Dj-45" style="edgeStyle=orthogonalEdgeStyle;rounded=0;orthogonalLoop=1;jettySize=auto;html=1;exitX=0.5;exitY=1;exitDx=0;exitDy=0;" edge="1" parent="1" source="2HPbfZ2s-njxEgDeP7Dj-46" target="2HPbfZ2s-njxEgDeP7Dj-48">
          <mxGeometry relative="1" as="geometry" />
        </mxCell>
        <mxCell id="2HPbfZ2s-njxEgDeP7Dj-46" value="Node1" style="ellipse;whiteSpace=wrap;html=1;aspect=fixed;" vertex="1" parent="1">
          <mxGeometry x="1057.5" y="-340" width="50" height="50" as="geometry" />
        </mxCell>
        <mxCell id="2HPbfZ2s-njxEgDeP7Dj-47" style="edgeStyle=orthogonalEdgeStyle;rounded=0;orthogonalLoop=1;jettySize=auto;html=1;exitX=1;exitY=0.5;exitDx=0;exitDy=0;" edge="1" parent="1" source="2HPbfZ2s-njxEgDeP7Dj-48" target="2HPbfZ2s-njxEgDeP7Dj-49">
          <mxGeometry relative="1" as="geometry" />
        </mxCell>
        <mxCell id="2HPbfZ2s-njxEgDeP7Dj-48" value="Node2" style="ellipse;whiteSpace=wrap;html=1;aspect=fixed;" vertex="1" parent="1">
          <mxGeometry x="1057.5" y="-250" width="50" height="50" as="geometry" />
        </mxCell>
        <mxCell id="2HPbfZ2s-njxEgDeP7Dj-49" value="Node3" style="ellipse;whiteSpace=wrap;html=1;aspect=fixed;" vertex="1" parent="1">
          <mxGeometry x="1147.5" y="-250" width="50" height="50" as="geometry" />
        </mxCell>
        <mxCell id="2HPbfZ2s-njxEgDeP7Dj-50" value="" style="endArrow=none;html=1;rounded=0;entryX=0.986;entryY=0.052;entryDx=0;entryDy=0;entryPerimeter=0;exitX=0.5;exitY=1;exitDx=0;exitDy=0;strokeWidth=5;strokeColor=#FF0000;" edge="1" parent="1" source="2HPbfZ2s-njxEgDeP7Dj-40" target="2HPbfZ2s-njxEgDeP7Dj-40">
          <mxGeometry width="50" height="50" relative="1" as="geometry">
            <mxPoint x="1470" y="-120" as="sourcePoint" />
            <mxPoint x="1520" y="-170" as="targetPoint" />
          </mxGeometry>
        </mxCell>
        <mxCell id="2HPbfZ2s-njxEgDeP7Dj-51" value="" style="endArrow=none;html=1;rounded=0;entryX=0.986;entryY=0.959;entryDx=0;entryDy=0;entryPerimeter=0;exitX=0.5;exitY=1;exitDx=0;exitDy=0;strokeWidth=5;strokeColor=#FF0000;" edge="1" parent="1" source="2HPbfZ2s-njxEgDeP7Dj-44" target="2HPbfZ2s-njxEgDeP7Dj-40">
          <mxGeometry width="50" height="50" relative="1" as="geometry">
            <mxPoint x="1310" y="-110" as="sourcePoint" />
            <mxPoint x="1679" y="-375" as="targetPoint" />
          </mxGeometry>
        </mxCell>
      </root>
    </mxGraphModel>
  </diagram>
  <diagram id="7hHsNfLVjBMBWEtR-sdJ" name="tree-ecu-tree-remove-node">
    <mxGraphModel dx="942" dy="1671" grid="1" gridSize="10" guides="1" tooltips="1" connect="1" arrows="1" fold="1" page="1" pageScale="1" pageWidth="850" pageHeight="1100" math="0" shadow="0">
      <root>
        <mxCell id="0" />
        <mxCell id="1" parent="0" />
        <mxCell id="7FgLRBwSh7Fgoqr2O9TB-1" value="" style="rounded=1;whiteSpace=wrap;html=1;fillColor=#c9c5c5;" vertex="1" parent="1">
          <mxGeometry x="200" y="-480" width="595" height="280" as="geometry" />
        </mxCell>
        <mxCell id="7FgLRBwSh7Fgoqr2O9TB-2" style="edgeStyle=orthogonalEdgeStyle;rounded=0;orthogonalLoop=1;jettySize=auto;html=1;exitX=0.5;exitY=1;exitDx=0;exitDy=0;" edge="1" parent="1" source="7FgLRBwSh7Fgoqr2O9TB-3" target="7FgLRBwSh7Fgoqr2O9TB-5">
          <mxGeometry relative="1" as="geometry" />
        </mxCell>
        <mxCell id="7FgLRBwSh7Fgoqr2O9TB-3" value="Node1" style="ellipse;whiteSpace=wrap;html=1;aspect=fixed;" vertex="1" parent="1">
          <mxGeometry x="230" y="-450" width="50" height="50" as="geometry" />
        </mxCell>
        <mxCell id="7FgLRBwSh7Fgoqr2O9TB-4" style="edgeStyle=orthogonalEdgeStyle;rounded=0;orthogonalLoop=1;jettySize=auto;html=1;exitX=1;exitY=0.5;exitDx=0;exitDy=0;" edge="1" parent="1" source="7FgLRBwSh7Fgoqr2O9TB-5" target="7FgLRBwSh7Fgoqr2O9TB-8">
          <mxGeometry relative="1" as="geometry" />
        </mxCell>
        <mxCell id="7FgLRBwSh7Fgoqr2O9TB-5" value="Node2" style="ellipse;whiteSpace=wrap;html=1;aspect=fixed;" vertex="1" parent="1">
          <mxGeometry x="230" y="-360" width="50" height="50" as="geometry" />
        </mxCell>
        <mxCell id="7FgLRBwSh7Fgoqr2O9TB-6" style="edgeStyle=orthogonalEdgeStyle;rounded=0;orthogonalLoop=1;jettySize=auto;html=1;exitX=1;exitY=0.5;exitDx=0;exitDy=0;" edge="1" parent="1" source="7FgLRBwSh7Fgoqr2O9TB-8" target="7FgLRBwSh7Fgoqr2O9TB-9">
          <mxGeometry relative="1" as="geometry" />
        </mxCell>
        <mxCell id="7FgLRBwSh7Fgoqr2O9TB-7" style="edgeStyle=orthogonalEdgeStyle;rounded=0;orthogonalLoop=1;jettySize=auto;html=1;exitX=0.5;exitY=1;exitDx=0;exitDy=0;" edge="1" parent="1" source="7FgLRBwSh7Fgoqr2O9TB-8" target="7FgLRBwSh7Fgoqr2O9TB-11">
          <mxGeometry relative="1" as="geometry" />
        </mxCell>
        <mxCell id="7FgLRBwSh7Fgoqr2O9TB-8" value="Node3" style="ellipse;whiteSpace=wrap;html=1;aspect=fixed;" vertex="1" parent="1">
          <mxGeometry x="320" y="-360" width="50" height="50" as="geometry" />
        </mxCell>
        <mxCell id="7FgLRBwSh7Fgoqr2O9TB-9" value="Node4" style="ellipse;whiteSpace=wrap;html=1;aspect=fixed;" vertex="1" parent="1">
          <mxGeometry x="410" y="-360" width="50" height="50" as="geometry" />
        </mxCell>
        <mxCell id="7FgLRBwSh7Fgoqr2O9TB-10" style="edgeStyle=orthogonalEdgeStyle;rounded=0;orthogonalLoop=1;jettySize=auto;html=1;exitX=1;exitY=0.5;exitDx=0;exitDy=0;" edge="1" parent="1" source="7FgLRBwSh7Fgoqr2O9TB-11" target="7FgLRBwSh7Fgoqr2O9TB-12">
          <mxGeometry relative="1" as="geometry" />
        </mxCell>
        <mxCell id="7FgLRBwSh7Fgoqr2O9TB-11" value="Node5" style="ellipse;whiteSpace=wrap;html=1;aspect=fixed;" vertex="1" parent="1">
          <mxGeometry x="320" y="-260" width="50" height="50" as="geometry" />
        </mxCell>
        <mxCell id="7FgLRBwSh7Fgoqr2O9TB-12" value="Node6" style="ellipse;whiteSpace=wrap;html=1;aspect=fixed;" vertex="1" parent="1">
          <mxGeometry x="410" y="-260" width="50" height="50" as="geometry" />
        </mxCell>
        <mxCell id="7FgLRBwSh7Fgoqr2O9TB-13" value="&lt;b&gt;&lt;font style=&quot;font-size: 16px;&quot;&gt;Destroying Node1 - ecu_tree_node_destroy(&amp;amp;node1);&lt;/font&gt;&lt;/b&gt;" style="text;html=1;strokeColor=none;fillColor=none;align=center;verticalAlign=middle;whiteSpace=wrap;rounded=0;" vertex="1" parent="1">
          <mxGeometry x="267.5" y="-510" width="460" height="30" as="geometry" />
        </mxCell>
        <mxCell id="7FgLRBwSh7Fgoqr2O9TB-14" value="" style="endArrow=none;html=1;rounded=0;exitX=0.5;exitY=1;exitDx=0;exitDy=0;entryX=0.5;entryY=0;entryDx=0;entryDy=0;" edge="1" parent="1" source="7FgLRBwSh7Fgoqr2O9TB-1" target="7FgLRBwSh7Fgoqr2O9TB-1">
          <mxGeometry width="50" height="50" relative="1" as="geometry">
            <mxPoint x="540" y="-430" as="sourcePoint" />
            <mxPoint x="490" y="-520" as="targetPoint" />
          </mxGeometry>
        </mxCell>
        <mxCell id="7FgLRBwSh7Fgoqr2O9TB-15" value="&lt;b&gt;Before&lt;/b&gt;" style="text;html=1;strokeColor=none;fillColor=none;align=center;verticalAlign=middle;whiteSpace=wrap;rounded=0;" vertex="1" parent="1">
          <mxGeometry x="330" y="-480" width="60" height="30" as="geometry" />
        </mxCell>
        <mxCell id="7FgLRBwSh7Fgoqr2O9TB-16" value="&lt;b&gt;After&lt;/b&gt;" style="text;html=1;strokeColor=none;fillColor=none;align=center;verticalAlign=middle;whiteSpace=wrap;rounded=0;" vertex="1" parent="1">
          <mxGeometry x="620" y="-480" width="60" height="30" as="geometry" />
        </mxCell>
      </root>
    </mxGraphModel>
  </diagram>
</mxfile>
